<?xml version="1.0" encoding="utf-8" standalone="no"?>
<!DOCTYPE svg PUBLIC "-//W3C//DTD SVG 1.1//EN"
  "http://www.w3.org/Graphics/SVG/1.1/DTD/svg11.dtd">
<!-- Created with matplotlib (https://matplotlib.org/) -->
<svg height="345.6pt" version="1.1" viewBox="0 0 460.8 345.6" width="460.8pt" xmlns="http://www.w3.org/2000/svg" xmlns:xlink="http://www.w3.org/1999/xlink">
 <metadata>
  <rdf:RDF xmlns:cc="http://creativecommons.org/ns#" xmlns:dc="http://purl.org/dc/elements/1.1/" xmlns:rdf="http://www.w3.org/1999/02/22-rdf-syntax-ns#">
   <cc:Work>
    <dc:type rdf:resource="http://purl.org/dc/dcmitype/StillImage"/>
    <dc:date>2021-12-09T13:12:38.221666</dc:date>
    <dc:format>image/svg+xml</dc:format>
    <dc:creator>
     <cc:Agent>
      <dc:title>Matplotlib v3.3.4, https://matplotlib.org/</dc:title>
     </cc:Agent>
    </dc:creator>
   </cc:Work>
  </rdf:RDF>
 </metadata>
 <defs>
  <style type="text/css">*{stroke-linecap:butt;stroke-linejoin:round;}</style>
 </defs>
 <g id="figure_1">
  <g id="patch_1">
   <path d="M 0 345.6 
L 460.8 345.6 
L 460.8 0 
L 0 0 
z
" style="fill:#ffffff;"/>
  </g>
  <g id="axes_1">
   <g id="patch_2">
    <path d="M 57.6 248.594304 
L 219.927273 248.594304 
L 219.927273 100.461696 
L 57.6 100.461696 
z
" style="fill:#ffffff;"/>
   </g>
   <g id="matplotlib.axis_1">
    <g id="xtick_1">
     <g id="line2d_1">
      <defs>
       <path d="M 0 0 
L 0 3.5 
" id="m11dedbd2e2" style="stroke:#000000;stroke-width:0.8;"/>
      </defs>
      <g>
       <use style="stroke:#000000;stroke-width:0.8;" x="82.255295" xlink:href="#m11dedbd2e2" y="248.594304"/>
      </g>
     </g>
     <g id="text_1">
      <!-- −2 -->
      <g transform="translate(74.884201 263.192741)scale(0.1 -0.1)">
       <defs>
        <path d="M 10.59375 35.5 
L 73.1875 35.5 
L 73.1875 27.203125 
L 10.59375 27.203125 
z
" id="DejaVuSans-8722"/>
        <path d="M 19.1875 8.296875 
L 53.609375 8.296875 
L 53.609375 0 
L 7.328125 0 
L 7.328125 8.296875 
Q 12.9375 14.109375 22.625 23.890625 
Q 32.328125 33.6875 34.8125 36.53125 
Q 39.546875 41.84375 41.421875 45.53125 
Q 43.3125 49.21875 43.3125 52.78125 
Q 43.3125 58.59375 39.234375 62.25 
Q 35.15625 65.921875 28.609375 65.921875 
Q 23.96875 65.921875 18.8125 64.3125 
Q 13.671875 62.703125 7.8125 59.421875 
L 7.8125 69.390625 
Q 13.765625 71.78125 18.9375 73 
Q 24.125 74.21875 28.421875 74.21875 
Q 39.75 74.21875 46.484375 68.546875 
Q 53.21875 62.890625 53.21875 53.421875 
Q 53.21875 48.921875 51.53125 44.890625 
Q 49.859375 40.875 45.40625 35.40625 
Q 44.1875 33.984375 37.640625 27.21875 
Q 31.109375 20.453125 19.1875 8.296875 
z
" id="DejaVuSans-50"/>
       </defs>
       <use xlink:href="#DejaVuSans-8722"/>
       <use x="83.789062" xlink:href="#DejaVuSans-50"/>
      </g>
     </g>
    </g>
    <g id="xtick_2">
     <g id="line2d_2">
      <g>
       <use style="stroke:#000000;stroke-width:0.8;" x="131.663078" xlink:href="#m11dedbd2e2" y="248.594304"/>
      </g>
     </g>
     <g id="text_2">
      <!-- 0 -->
      <g transform="translate(128.481828 263.192741)scale(0.1 -0.1)">
       <defs>
        <path d="M 31.78125 66.40625 
Q 24.171875 66.40625 20.328125 58.90625 
Q 16.5 51.421875 16.5 36.375 
Q 16.5 21.390625 20.328125 13.890625 
Q 24.171875 6.390625 31.78125 6.390625 
Q 39.453125 6.390625 43.28125 13.890625 
Q 47.125 21.390625 47.125 36.375 
Q 47.125 51.421875 43.28125 58.90625 
Q 39.453125 66.40625 31.78125 66.40625 
z
M 31.78125 74.21875 
Q 44.046875 74.21875 50.515625 64.515625 
Q 56.984375 54.828125 56.984375 36.375 
Q 56.984375 17.96875 50.515625 8.265625 
Q 44.046875 -1.421875 31.78125 -1.421875 
Q 19.53125 -1.421875 13.0625 8.265625 
Q 6.59375 17.96875 6.59375 36.375 
Q 6.59375 54.828125 13.0625 64.515625 
Q 19.53125 74.21875 31.78125 74.21875 
z
" id="DejaVuSans-48"/>
       </defs>
       <use xlink:href="#DejaVuSans-48"/>
      </g>
     </g>
    </g>
    <g id="xtick_3">
     <g id="line2d_3">
      <g>
       <use style="stroke:#000000;stroke-width:0.8;" x="181.07086" xlink:href="#m11dedbd2e2" y="248.594304"/>
      </g>
     </g>
     <g id="text_3">
      <!-- 2 -->
      <g transform="translate(177.88961 263.192741)scale(0.1 -0.1)">
       <use xlink:href="#DejaVuSans-50"/>
      </g>
     </g>
    </g>
    <g id="text_4">
     <!-- x(t) -->
     <g transform="translate(129.942543 276.870866)scale(0.1 -0.1)">
      <defs>
       <path d="M 54.890625 54.6875 
L 35.109375 28.078125 
L 55.90625 0 
L 45.3125 0 
L 29.390625 21.484375 
L 13.484375 0 
L 2.875 0 
L 24.125 28.609375 
L 4.6875 54.6875 
L 15.28125 54.6875 
L 29.78125 35.203125 
L 44.28125 54.6875 
z
" id="DejaVuSans-120"/>
       <path d="M 31 75.875 
Q 24.46875 64.65625 21.28125 53.65625 
Q 18.109375 42.671875 18.109375 31.390625 
Q 18.109375 20.125 21.3125 9.0625 
Q 24.515625 -2 31 -13.1875 
L 23.1875 -13.1875 
Q 15.875 -1.703125 12.234375 9.375 
Q 8.59375 20.453125 8.59375 31.390625 
Q 8.59375 42.28125 12.203125 53.3125 
Q 15.828125 64.359375 23.1875 75.875 
z
" id="DejaVuSans-40"/>
       <path d="M 18.3125 70.21875 
L 18.3125 54.6875 
L 36.8125 54.6875 
L 36.8125 47.703125 
L 18.3125 47.703125 
L 18.3125 18.015625 
Q 18.3125 11.328125 20.140625 9.421875 
Q 21.96875 7.515625 27.59375 7.515625 
L 36.8125 7.515625 
L 36.8125 0 
L 27.59375 0 
Q 17.1875 0 13.234375 3.875 
Q 9.28125 7.765625 9.28125 18.015625 
L 9.28125 47.703125 
L 2.6875 47.703125 
L 2.6875 54.6875 
L 9.28125 54.6875 
L 9.28125 70.21875 
z
" id="DejaVuSans-116"/>
       <path d="M 8.015625 75.875 
L 15.828125 75.875 
Q 23.140625 64.359375 26.78125 53.3125 
Q 30.421875 42.28125 30.421875 31.390625 
Q 30.421875 20.453125 26.78125 9.375 
Q 23.140625 -1.703125 15.828125 -13.1875 
L 8.015625 -13.1875 
Q 14.5 -2 17.703125 9.0625 
Q 20.90625 20.125 20.90625 31.390625 
Q 20.90625 42.671875 17.703125 53.65625 
Q 14.5 64.65625 8.015625 75.875 
z
" id="DejaVuSans-41"/>
      </defs>
      <use xlink:href="#DejaVuSans-120"/>
      <use x="59.179688" xlink:href="#DejaVuSans-40"/>
      <use x="98.193359" xlink:href="#DejaVuSans-116"/>
      <use x="137.402344" xlink:href="#DejaVuSans-41"/>
     </g>
    </g>
   </g>
   <g id="matplotlib.axis_2">
    <g id="ytick_1">
     <g id="line2d_4">
      <defs>
       <path d="M 0 0 
L -3.5 0 
" id="m31c26769e4" style="stroke:#000000;stroke-width:0.8;"/>
      </defs>
      <g>
       <use style="stroke:#000000;stroke-width:0.8;" x="57.6" xlink:href="#m31c26769e4" y="244.327248"/>
      </g>
     </g>
     <g id="text_5">
      <!-- −3 -->
      <g transform="translate(35.857813 248.126467)scale(0.1 -0.1)">
       <defs>
        <path d="M 40.578125 39.3125 
Q 47.65625 37.796875 51.625 33 
Q 55.609375 28.21875 55.609375 21.1875 
Q 55.609375 10.40625 48.1875 4.484375 
Q 40.765625 -1.421875 27.09375 -1.421875 
Q 22.515625 -1.421875 17.65625 -0.515625 
Q 12.796875 0.390625 7.625 2.203125 
L 7.625 11.71875 
Q 11.71875 9.328125 16.59375 8.109375 
Q 21.484375 6.890625 26.8125 6.890625 
Q 36.078125 6.890625 40.9375 10.546875 
Q 45.796875 14.203125 45.796875 21.1875 
Q 45.796875 27.640625 41.28125 31.265625 
Q 36.765625 34.90625 28.71875 34.90625 
L 20.21875 34.90625 
L 20.21875 43.015625 
L 29.109375 43.015625 
Q 36.375 43.015625 40.234375 45.921875 
Q 44.09375 48.828125 44.09375 54.296875 
Q 44.09375 59.90625 40.109375 62.90625 
Q 36.140625 65.921875 28.71875 65.921875 
Q 24.65625 65.921875 20.015625 65.03125 
Q 15.375 64.15625 9.8125 62.3125 
L 9.8125 71.09375 
Q 15.4375 72.65625 20.34375 73.4375 
Q 25.25 74.21875 29.59375 74.21875 
Q 40.828125 74.21875 47.359375 69.109375 
Q 53.90625 64.015625 53.90625 55.328125 
Q 53.90625 49.265625 50.4375 45.09375 
Q 46.96875 40.921875 40.578125 39.3125 
z
" id="DejaVuSans-51"/>
       </defs>
       <use xlink:href="#DejaVuSans-8722"/>
       <use x="83.789062" xlink:href="#DejaVuSans-51"/>
      </g>
     </g>
    </g>
    <g id="ytick_2">
     <g id="line2d_5">
      <g>
       <use style="stroke:#000000;stroke-width:0.8;" x="57.6" xlink:href="#m31c26769e4" y="219.623357"/>
      </g>
     </g>
     <g id="text_6">
      <!-- −2 -->
      <g transform="translate(35.857813 223.422576)scale(0.1 -0.1)">
       <use xlink:href="#DejaVuSans-8722"/>
       <use x="83.789062" xlink:href="#DejaVuSans-50"/>
      </g>
     </g>
    </g>
    <g id="ytick_3">
     <g id="line2d_6">
      <g>
       <use style="stroke:#000000;stroke-width:0.8;" x="57.6" xlink:href="#m31c26769e4" y="194.919466"/>
      </g>
     </g>
     <g id="text_7">
      <!-- −1 -->
      <g transform="translate(35.857813 198.718685)scale(0.1 -0.1)">
       <defs>
        <path d="M 12.40625 8.296875 
L 28.515625 8.296875 
L 28.515625 63.921875 
L 10.984375 60.40625 
L 10.984375 69.390625 
L 28.421875 72.90625 
L 38.28125 72.90625 
L 38.28125 8.296875 
L 54.390625 8.296875 
L 54.390625 0 
L 12.40625 0 
z
" id="DejaVuSans-49"/>
       </defs>
       <use xlink:href="#DejaVuSans-8722"/>
       <use x="83.789062" xlink:href="#DejaVuSans-49"/>
      </g>
     </g>
    </g>
    <g id="ytick_4">
     <g id="line2d_7">
      <g>
       <use style="stroke:#000000;stroke-width:0.8;" x="57.6" xlink:href="#m31c26769e4" y="170.215575"/>
      </g>
     </g>
     <g id="text_8">
      <!-- 0 -->
      <g transform="translate(44.2375 174.014793)scale(0.1 -0.1)">
       <use xlink:href="#DejaVuSans-48"/>
      </g>
     </g>
    </g>
    <g id="ytick_5">
     <g id="line2d_8">
      <g>
       <use style="stroke:#000000;stroke-width:0.8;" x="57.6" xlink:href="#m31c26769e4" y="145.511683"/>
      </g>
     </g>
     <g id="text_9">
      <!-- 1 -->
      <g transform="translate(44.2375 149.310902)scale(0.1 -0.1)">
       <use xlink:href="#DejaVuSans-49"/>
      </g>
     </g>
    </g>
    <g id="ytick_6">
     <g id="line2d_9">
      <g>
       <use style="stroke:#000000;stroke-width:0.8;" x="57.6" xlink:href="#m31c26769e4" y="120.807792"/>
      </g>
     </g>
     <g id="text_10">
      <!-- 2 -->
      <g transform="translate(44.2375 124.607011)scale(0.1 -0.1)">
       <use xlink:href="#DejaVuSans-50"/>
      </g>
     </g>
    </g>
    <g id="text_11">
     <!-- v(t) -->
     <g transform="translate(29.778125 183.349094)rotate(-90)scale(0.1 -0.1)">
      <defs>
       <path d="M 2.984375 54.6875 
L 12.5 54.6875 
L 29.59375 8.796875 
L 46.6875 54.6875 
L 56.203125 54.6875 
L 35.6875 0 
L 23.484375 0 
z
" id="DejaVuSans-118"/>
      </defs>
      <use xlink:href="#DejaVuSans-118"/>
      <use x="59.179688" xlink:href="#DejaVuSans-40"/>
      <use x="98.193359" xlink:href="#DejaVuSans-116"/>
      <use x="137.402344" xlink:href="#DejaVuSans-41"/>
     </g>
    </g>
   </g>
   <g id="line2d_10">
    <path clip-path="url(#p347a154a33)" d="M 193.422806 108.455846 
L 195.81717 112.290693 
L 198.055713 116.241526 
L 200.628649 121.300925 
L 202.946266 126.444424 
L 205.005664 131.620267 
L 206.806449 136.780318 
L 208.350512 141.881298 
L 209.641774 146.885644 
L 210.685876 151.761984 
L 211.489872 156.485279 
L 212.061912 161.036656 
L 212.410942 165.403026 
L 212.546432 169.576531 
L 212.478125 173.553893 
L 212.215828 177.335716 
L 211.769237 180.925793 
L 211.147791 184.330436 
L 210.360564 187.557867 
L 209.416183 190.617672 
L 208.32277 193.520334 
L 206.824593 196.811573 
L 205.134756 199.911587 
L 203.26416 202.839326 
L 201.222595 205.612962 
L 199.01879 208.249521 
L 196.252918 211.173007 
L 193.287519 213.953141 
L 190.131951 216.608703 
L 186.303156 219.510553 
L 182.247317 222.286506 
L 177.97405 224.946866 
L 173.492424 227.49488 
L 168.811548 229.92625 
L 163.941193 232.228618 
L 158.892459 234.381042 
L 153.67848 236.353582 
L 148.993111 237.901448 
L 144.206161 239.249863 
L 140.033679 240.219124 
L 135.808877 240.989222 
L 131.544522 241.532757 
L 127.971049 241.792135 
L 124.389378 241.857874 
L 120.809601 241.713785 
L 117.242596 241.344538 
L 113.699979 240.736206 
L 110.194014 239.876817 
L 106.737502 238.756912 
L 103.343646 237.370067 
L 100.682699 236.066304 
L 98.077362 234.590028 
L 95.534503 232.943183 
L 92.454065 230.650505 
L 89.494571 228.108077 
L 86.668151 225.330869 
L 83.986094 222.337591 
L 81.458665 219.150222 
L 79.094965 215.793425 
L 76.902805 212.293837 
L 74.888633 208.679321 
L 73.057489 204.978187 
L 71.413001 201.218447 
L 69.689074 196.667341 
L 68.238508 192.114257 
L 67.060222 187.598339 
L 66.150942 183.153471 
L 65.50553 178.807847 
L 65.11733 174.583856 
L 64.978512 170.498264 
L 65.080402 166.562605 
L 65.413774 162.783736 
L 65.969117 159.16447 
L 66.736856 155.704258 
L 67.707531 152.399862 
L 68.871943 149.245998 
L 70.221256 146.235927 
L 71.747066 143.361979 
L 73.441449 140.616018 
L 75.296972 137.989838 
L 77.656169 135.066796 
L 80.215012 132.284412 
L 82.964017 129.632649 
L 85.894332 127.103475 
L 88.997587 124.691251 
L 92.745586 122.074027 
L 96.697021 119.60638 
L 100.839717 117.294529 
L 105.160757 115.150822 
L 109.645979 113.194055 
L 113.692762 111.655026 
L 117.840996 110.299536 
L 122.076991 109.15222 
L 126.385218 108.240818 
L 130.122223 107.670194 
L 133.887108 107.314896 
L 137.666351 107.194996 
L 141.445234 107.330069 
L 144.58262 107.650655 
L 147.699029 108.170532 
L 150.784287 108.897793 
L 153.827857 109.838789 
L 156.818934 110.997794 
L 159.74656 112.376709 
L 162.599744 113.974829 
L 165.367599 115.788677 
L 168.039485 117.811929 
L 170.605148 120.035434 
L 173.054859 122.447335 
L 175.379547 125.033286 
L 177.570913 127.776764 
L 179.621531 130.659451 
L 181.524928 133.661682 
L 183.607046 137.393208 
L 185.461877 141.231164 
L 187.08411 145.139824 
L 188.470541 149.084935 
L 189.619951 153.034626 
L 190.532947 156.960128 
L 191.211754 160.836264 
L 191.659994 164.641724 
L 191.882447 168.35914 
L 191.884822 171.974994 
L 191.673528 175.479378 
L 191.255467 178.865663 
L 190.637852 182.130095 
L 189.828046 185.271358 
L 188.833428 188.29013 
L 187.661289 191.188637 
L 186.318748 193.970246 
L 184.812699 196.639072 
L 182.857822 199.616191 
L 180.69947 202.453235 
L 178.347206 205.157054 
L 175.810144 207.733545 
L 173.09703 210.187207 
L 170.216357 212.520738 
L 166.729732 215.041143 
L 163.047794 217.402206 
L 159.183568 219.596195 
L 155.150896 221.61036 
L 150.96485 223.426717 
L 147.189343 224.835608 
L 143.321664 226.056561 
L 139.375707 227.068135 
L 135.366946 227.846664 
L 131.893862 228.309387 
L 128.399113 228.566034 
L 124.895554 228.600394 
L 121.396992 228.396964 
L 117.91813 227.941573 
L 115.045285 227.360775 
L 112.206191 226.5909 
L 109.410409 225.627893 
L 106.667663 224.469503 
L 103.987736 223.115492 
L 101.380372 221.567779 
L 98.855162 219.830542 
L 96.421432 217.910238 
L 94.088126 215.815556 
L 91.863705 213.557295 
L 89.756037 211.148167 
L 87.391021 208.078409 
L 85.215426 204.839508 
L 83.238532 201.460723 
L 81.467827 197.972303 
L 79.908977 194.404563 
L 78.565853 190.787016 
L 77.440593 187.147607 
L 76.533726 183.512082 
L 75.844311 179.90352 
L 75.370113 176.342022 
L 75.107781 172.844567 
L 75.053042 169.425 
L 75.200883 166.094141 
L 75.545728 162.860003 
L 76.081595 159.728061 
L 76.802244 156.701576 
L 77.701298 153.781947 
L 78.772341 150.96906 
L 80.009001 148.261636 
L 81.652737 145.233428 
L 83.503667 142.341682 
L 85.552394 139.581848 
L 87.789841 136.949579 
L 90.207209 134.441212 
L 92.795921 132.0542 
L 95.54753 129.78749 
L 98.88086 127.345358 
L 102.403114 125.065975 
L 106.100953 122.957923 
L 109.960184 121.034143 
L 113.965393 119.312107 
L 117.576388 117.987984 
L 121.273587 116.852472 
L 125.043113 115.925158 
L 128.869651 115.227373 
L 132.182188 114.828962 
L 135.512718 114.630033 
L 138.848847 114.644671 
L 142.177355 114.886168 
L 145.484262 115.366477 
L 148.754926 116.095626 
L 151.974175 117.081144 
L 154.606407 118.101593 
L 157.18306 119.304024 
L 159.695054 120.687369 
L 162.13341 122.248624 
L 164.489346 123.982807 
L 166.754381 125.882971 
L 169.341082 128.369696 
L 171.772234 131.064045 
L 174.036015 133.944303 
L 176.121986 136.98624 
L 178.02122 140.163834 
L 179.726383 143.450052 
L 181.231777 146.817643 
L 182.533324 150.239881 
L 183.628518 153.691242 
L 184.516336 157.147969 
L 185.197113 160.588507 
L 185.672406 163.993809 
L 185.944834 167.347502 
L 186.017916 170.635937 
L 185.895912 173.848126 
L 185.583663 176.975595 
L 185.086448 180.012169 
L 184.409856 182.953708 
L 183.559669 185.797816 
L 182.356228 188.99159 
L 180.93388 192.051884 
L 179.301911 194.980545 
L 177.469446 197.78028 
L 175.445404 200.454101 
L 173.238501 203.00482 
L 170.857272 205.434605 
L 168.310138 207.744578 
L 165.206742 210.237415 
L 161.910269 212.570198 
L 158.433764 214.736381 
L 154.790942 216.725651 
L 150.996504 218.523682 
L 147.06646 220.112055 
L 143.530256 221.312398 
L 139.916734 222.317888 
L 136.240192 223.109515 
L 132.516305 223.667008 
L 129.299657 223.94269 
L 126.072415 224.017966 
L 122.846984 223.88034 
L 119.636488 223.518352 
L 116.454698 222.922102 
L 113.315916 222.083763 
L 110.234842 220.998081 
L 107.2264 219.662822 
L 104.305551 218.079128 
L 101.487076 216.251765 
L 98.785362 214.18923 
L 96.214172 211.903701 
L 93.786436 209.410832 
L 91.514045 206.729383 
L 89.407686 203.880731 
L 87.4767 200.888255 
L 85.728979 197.776664 
L 84.170914 194.571289 
L 82.807371 191.297385 
L 81.641723 187.979483 
L 80.675903 184.640827 
L 79.910504 181.302899 
L 79.269935 177.435293 
L 78.898378 173.621685 
L 78.791251 169.884252 
L 78.942575 166.240647 
L 79.345292 162.704237 
L 79.991542 159.284507 
L 80.872927 155.987565 
L 81.980719 152.816721 
L 83.30604 149.773089 
L 84.839995 146.856179 
L 86.57376 144.064473 
L 88.49864 141.395959 
L 90.606083 138.848622 
L 92.887662 136.420887 
L 95.335039 134.112019 
L 98.324369 131.619511 
L 101.506789 129.285999 
L 104.869355 127.117629 
L 108.398493 125.123988 
L 112.079719 123.318355 
L 115.897333 121.717809 
L 119.336133 120.501819 
L 122.853547 119.474774 
L 126.435734 118.654421 
L 130.067564 118.059752 
L 133.732554 117.710407 
L 136.886863 117.621071 
L 140.040396 117.738153 
L 143.180437 118.072484 
L 146.293658 118.633455 
L 149.366225 119.428532 
L 152.383926 120.462794 
L 155.332324 121.738517 
L 158.19694 123.254832 
L 160.963447 125.00749 
L 163.617878 126.988741 
L 166.146836 129.187371 
L 168.537695 131.588873 
L 170.778794 134.175766 
L 172.859595 136.928041 
L 174.770828 139.823707 
L 176.504583 142.839415 
L 178.054376 145.951105 
L 179.415173 149.134662 
L 180.583373 152.366527 
L 181.556758 155.624236 
L 182.444995 159.429771 
L 183.067463 163.212215 
L 183.426709 166.945693 
L 183.526943 170.608585 
L 183.373738 174.18351 
L 182.973743 177.657127 
L 182.334409 181.019771 
L 181.463747 184.264987 
L 180.370125 187.388994 
L 179.062096 190.390129 
L 177.548275 193.268278 
L 175.837244 196.024338 
L 173.937503 198.659704 
L 171.857451 201.175798 
L 169.605397 203.573639 
L 167.189608 205.853459 
L 164.238846 208.313243 
L 161.097609 210.614022 
L 157.77886 212.749248 
L 154.296215 214.709095 
L 150.664215 216.480221 
L 146.898613 218.045679 
L 143.507635 219.23076 
L 140.040204 220.227087 
L 136.510129 221.01742 
L 132.932469 221.583406 
L 129.323589 221.906157 
L 126.218787 221.975006 
L 123.115911 221.840177 
L 120.027495 221.491433 
L 116.966649 220.919975 
L 113.946953 220.118898 
L 110.982337 219.083624 
L 108.086925 217.812295 
L 105.27486 216.306087 
L 102.560122 214.569424 
L 99.956322 212.610078 
L 97.476507 210.439129 
L 95.132963 208.070791 
L 92.937036 205.522103 
L 90.898976 202.812501 
L 89.027807 199.963294 
L 87.331233 196.997076 
L 85.81558 193.937104 
L 84.485773 190.806684 
L 83.345352 187.628589 
L 82.257092 183.88946 
L 81.430895 180.146854 
L 80.865987 176.429245 
L 80.559734 172.76123 
L 80.507921 169.163341 
L 80.705037 165.652073 
L 81.144555 162.240097 
L 81.819182 158.936618 
L 82.721089 155.747829 
L 83.842105 152.677422 
L 85.173872 149.727124 
L 86.707964 146.897239 
L 88.435969 144.187164 
L 90.349534 141.595879 
L 92.440379 139.122396 
L 94.700279 136.766175 
L 97.479491 134.217331 
L 100.456421 131.824289 
L 103.618432 129.591785 
L 106.952394 127.527474 
L 110.444438 125.642253 
L 114.079684 123.950454 
L 117.841968 122.469857 
L 121.224291 121.364066 
L 124.677344 120.451979 
L 128.186969 119.750856 
L 131.737765 119.278816 
L 135.313053 119.054229 
L 138.383502 119.072254 
L 141.446755 119.295742 
L 144.490195 119.734045 
L 147.500691 120.394925 
L 150.464702 121.284116 
L 153.368418 122.40492 
L 156.197909 123.757862 
L 158.939306 125.340423 
L 161.578985 127.146882 
L 164.103765 129.168274 
L 166.501095 131.392481 
L 168.759245 133.804454 
L 170.867462 136.386563 
L 172.816123 139.119044 
L 174.596838 141.980539 
L 176.202533 144.94867 
L 177.627493 148.000648 
L 178.867367 151.113848 
L 180.076014 154.794118 
L 181.026103 158.495215 
L 181.717239 162.187394 
L 182.150984 165.844453 
L 182.330601 169.444046 
L 182.260782 172.967775 
L 181.947368 176.401077 
L 181.397094 179.732953 
L 180.617353 182.955579 
L 179.615986 186.063837 
L 178.401113 189.054807 
L 176.980996 191.927245 
L 175.363943 194.681062 
L 173.55824 197.316834 
L 171.572124 199.835342 
L 169.413781 202.237145 
L 167.09138 204.522197 
L 164.246843 206.989403 
L 161.211172 209.299287 
L 157.997179 211.445739 
L 154.618284 213.419653 
L 151.088764 215.208669 
L 147.424017 216.797055 
L 143.640837 218.165778 
L 140.247852 219.165944 
L 136.791799 219.964707 
L 133.287383 220.54463 
L 129.750553 220.887748 
L 126.706192 220.979838 
L 123.662189 220.874112 
L 120.630714 220.560743 
L 117.624489 220.031226 
L 114.656698 219.278808 
L 111.740865 218.298899 
L 108.890715 217.089445 
L 106.120015 215.651231 
L 103.442392 213.988101 
L 100.871148 212.107063 
L 98.419068 210.018273 
L 96.09824 207.734895 
L 93.919875 205.272831 
L 91.894159 202.650335 
L 90.030122 199.887541 
L 88.335544 197.005921 
L 86.816891 194.027702 
L 85.479286 190.975289 
L 84.152554 187.34971 
L 83.081144 183.686495 
L 82.266592 180.016533 
L 81.708381 176.36751 
L 81.404181 172.763484 
L 81.350113 169.224675 
L 81.541014 165.767479 
L 81.970704 162.404651 
L 82.632228 159.145629 
L 83.518075 155.996949 
L 84.620362 152.962731 
L 85.930991 150.045179 
L 87.441758 147.245096 
L 89.14444 144.562383 
L 91.030838 141.996504 
L 93.092792 139.546929 
L 95.322168 137.213527 
L 98.064575 134.689887 
L 101.002707 132.321534 
L 104.123954 130.113522 
L 107.415194 128.073693 
L 110.862555 126.212993 
L 114.451158 124.545639 
L 118.164856 123.089139 
L 121.503104 122.003799 
L 124.910684 121.111151 
L 128.373524 120.427957 
L 131.876351 119.971753 
L 135.402652 119.760255 
L 138.430466 119.786794 
L 141.45066 120.015826 
L 144.450809 120.456275 
L 147.417996 121.1155 
L 150.338921 121.998887 
L 153.200031 123.109461 
L 155.987667 124.447562 
L 158.68824 126.010593 
L 161.288408 127.792872 
L 163.775262 129.785597 
L 166.136516 131.976934 
L 168.360677 134.352237 
L 170.437209 136.894372 
L 172.356667 139.584157 
L 174.110807 142.400866 
L 175.692661 145.322787 
L 177.096579 148.327793 
L 178.503895 151.909352 
L 179.658553 155.540407 
L 180.558207 159.18943 
L 181.202618 162.827818 
L 181.593434 166.430407 
L 181.733933 169.975755 
L 181.628763 173.446204 
L 181.283677 176.827766 
L 180.705288 180.109845 
L 179.900841 183.284863 
L 178.878021 186.347805 
L 177.644788 189.295727 
L 176.20925 192.127255 
L 174.57957 194.842082 
L 172.76391 197.440501 
L 170.770405 199.922956 
L 168.607162 202.289633 
L 166.282299 204.540094 
L 163.437905 206.967904 
L 160.405543 209.23797 
L 157.19808 211.343617 
L 153.829036 213.27523 
L 150.312826 215.02002 
L 146.665016 216.561941 
L 142.902585 217.88179 
L 139.531037 218.837215 
L 136.099614 219.589531 
L 132.623132 220.121575 
L 129.117625 220.415801 
L 126.102852 220.46561 
L 123.090973 220.317726 
L 120.094134 219.962842 
L 117.125004 219.393038 
L 114.196671 218.60219 
L 111.322531 217.586362 
L 108.516138 216.344158 
L 105.791049 214.876997 
L 103.160645 213.189304 
L 100.637949 211.288585 
L 98.235443 209.185396 
L 95.964886 206.893173 
L 93.837152 204.427952 
L 91.862086 201.807981 
L 90.048381 199.053244 
L 88.403492 196.184931 
L 86.933581 193.224869 
L 85.446233 189.684717 
L 84.209054 186.083446 
L 83.225183 182.453179 
L 82.495604 178.823392 
L 82.019342 175.220319 
L 81.793715 171.666593 
L 81.814584 168.181109 
L 82.076619 164.779077 
L 82.573546 161.472241 
L 83.298383 158.269217 
L 84.243641 155.17592 
L 85.401497 152.196037 
L 86.763935 149.331525 
L 88.322847 146.583104 
L 90.070104 143.950739 
L 91.997592 141.43409 
L 94.09722 139.032931 
L 96.360898 136.747529 
L 99.138393 134.278848 
L 102.107186 131.966327 
L 105.254565 129.815882 
L 108.567231 127.836246 
L 112.031068 126.039239 
L 115.630883 124.439896 
L 119.350154 123.056427 
L 122.688323 122.039529 
L 126.090875 121.219778 
L 129.543428 120.613964 
L 133.030398 120.23944 
L 136.534985 120.113501 
L 139.539335 120.215952 
L 142.531453 120.52266 
L 145.49883 121.041819 
L 148.428513 121.779927 
L 151.30722 122.741396 
L 154.121475 123.92819 
L 156.857768 125.339537 
L 159.502719 126.971721 
L 162.043265 128.817974 
L 164.46684 130.868484 
L 166.761555 133.110538 
L 168.916365 135.528769 
L 170.921216 138.105517 
L 172.767176 140.821285 
L 174.446519 143.655253 
L 175.9528 146.585833 
L 177.280876 149.591224 
L 178.600011 153.163449 
L 179.667481 156.775637 
L 180.481567 160.397489 
L 181.042564 164.001739 
L 181.35256 167.564591 
L 181.415177 171.065928 
L 181.23532 174.489325 
L 180.818914 177.821887 
L 180.172677 181.053946 
L 179.303897 184.178673 
L 178.220258 187.191618 
L 176.929683 190.090222 
L 175.440225 192.873326 
L 173.759982 195.540687 
L 171.89705 198.092515 
L 169.85951 200.529054 
L 167.655431 202.850181 
L 164.942961 205.360458 
L 162.035814 207.71594 
L 158.946567 209.911431 
L 155.688316 211.939041 
L 152.274909 213.787881 
L 148.72119 215.443895 
L 145.043254 216.889844 
L 141.736957 217.966889 
L 138.361869 218.852441 
L 134.931965 219.530101 
L 131.462396 219.982733 
L 127.969521 220.193042 
L 124.970356 220.16771 
L 121.97867 219.942212 
L 119.006741 219.507863 
L 116.067326 218.857504 
L 113.173553 217.985905 
L 110.338799 216.890133 
L 107.576538 215.569873 
L 104.90018 214.027666 
L 102.322892 212.269061 
L 99.857416 210.302645 
L 97.51589 208.13996 
L 95.309676 205.7953 
L 93.249203 203.285387 
L 91.343833 200.628961 
L 89.601757 197.846285 
L 88.029917 194.958608 
L 86.633962 191.987611 
L 85.233383 188.444886 
L 84.082791 184.851217 
L 83.18465 181.237663 
L 82.539346 177.632479 
L 82.1454 174.060595 
L 81.999712 170.543336 
L 82.097819 167.098341 
L 82.434151 163.739668 
L 83.00227 160.478053 
L 83.795092 157.321263 
L 84.805084 154.274542 
L 86.024416 151.341079 
L 87.445096 148.522502 
L 89.059056 145.819367 
L 90.858214 143.231618 
L 92.8345 140.759029 
L 94.979856 138.401604 
L 97.628347 135.849231 
L 100.474925 133.45049 
L 103.507133 131.209898 
L 106.712054 129.134536 
L 110.076087 127.234391 
L 113.584711 125.522568 
L 117.22223 124.015347 
L 120.971517 122.732068 
L 124.329109 121.810183 
L 127.74418 121.092752 
L 131.201825 120.596747 
L 134.685941 120.33941 
L 137.680309 120.32159 
L 140.669863 120.501461 
L 143.642465 120.887955 
L 146.585485 121.488566 
L 149.485894 122.308958 
L 152.330387 123.352584 
L 155.10553 124.620356 
L 157.797913 126.110387 
L 160.394331 127.817823 
L 162.881959 129.734777 
L 165.248537 131.850394 
L 167.482539 134.151024 
L 169.573337 136.620515 
L 171.511336 139.240609 
L 173.288089 141.991411 
L 174.89638 144.851921 
L 176.330269 147.80058 
L 177.776597 151.323344 
L 178.97411 154.90343 
L 179.919909 158.509406 
L 180.613207 162.1125 
L 181.05512 165.687166 
L 181.248428 169.211407 
L 181.197324 172.666894 
L 180.907159 176.038897 
L 180.384193 179.316053 
L 179.635374 182.490033 
L 178.66814 185.555114 
L 177.49025 188.507714 
L 176.109655 191.345902 
L 174.534397 194.068916 
L 172.772543 196.676688 
L 170.832155 199.169407 
L 168.721284 201.54711 
L 166.447996 203.809307 
L 163.661504 206.251464 
L 160.685849 208.537089 
L 157.533789 210.659873 
L 154.218698 212.610703 
L 150.754798 214.377408 
L 147.157414 215.94465 
L 143.443222 217.293994 
L 140.111802 218.279271 
L 136.71827 219.065746 
L 133.277122 219.636713 
L 129.804048 219.975003 
L 126.315933 220.06361 
L 123.327802 219.928589 
L 120.353865 219.589114 
L 117.406632 219.037365 
L 114.499033 218.267259 
L 111.644302 217.274839 
L 108.855835 216.058613 
L 106.147041 214.619828 
L 103.531162 212.962661 
L 101.021104 211.094306 
L 98.629247 209.024943 
L 96.367276 206.767583 
L 94.246017 204.33781 
L 92.275292 201.753401 
L 90.463802 199.033879 
L 88.819038 196.199989 
L 87.34722 193.273157 
L 85.855189 189.769799 
L 84.610839 186.202769 
L 83.6175 182.603862 
L 82.876363 179.002355 
L 82.386675 175.424405 
L 82.145972 171.892676 
L 82.150332 168.426184 
L 82.394628 165.040334 
L 82.872774 161.747117 
L 83.577959 158.555427 
L 84.502843 155.471472 
L 85.639732 152.499233 
L 86.980718 149.640946 
L 88.517785 146.89759 
L 90.242876 144.269357 
L 92.147936 141.756103 
L 94.224919 139.357757 
L 96.465772 137.074704 
L 99.217 134.608231 
L 102.159367 132.297449 
L 105.2802 130.148243 
L 108.566245 128.169242 
L 112.003439 126.372094 
L 115.576662 124.771591 
L 119.269484 123.385643 
L 122.584721 122.36522 
L 125.96464 121.540411 
L 129.394975 120.927741 
L 132.860278 120.5443 
L 136.343902 120.407142 
L 139.33097 120.497984 
L 142.306562 120.791141 
L 145.258285 121.294744 
L 148.173308 122.015278 
L 151.038469 122.957189 
L 153.84041 124.122535 
L 156.565728 125.510694 
L 159.201144 127.118153 
L 161.733678 128.938403 
L 164.150832 130.961937 
L 166.440765 133.176376 
L 168.59246 135.566712 
L 170.595871 138.115651 
L 172.442046 140.804055 
L 174.123226 143.611443 
L 175.632907 146.516533 
L 177.170558 150.000564 
L 178.461659 153.55461 
L 179.502444 157.146532 
L 180.291321 160.746559 
L 180.828677 164.327936 
L 181.116655 167.867335 
L 181.158906 171.345052 
L 180.96033 174.745008 
L 180.526833 178.054578 
L 179.865092 181.264296 
L 178.982346 184.367459 
L 177.88622 187.359684 
L 176.58458 190.238417 
L 175.085419 193.002456 
L 173.396782 195.651474 
L 171.526719 198.185563 
L 169.483271 200.604819 
L 167.274485 202.908957 
L 164.558084 205.399948 
L 161.648552 207.736019 
L 158.558487 209.911694 
L 155.30103 211.918818 
L 151.89009 213.746264 
L 148.340593 215.379771 
L 144.668729 216.801955 
L 141.369345 217.857112 
L 138.002738 218.719759 
L 134.582953 219.373563 
L 131.125202 219.801523 
L 127.645895 219.986554 
L 124.659778 219.939284 
L 121.682458 219.691832 
L 118.726207 219.235769 
L 115.803758 218.564228 
L 112.928199 217.672288 
L 110.112845 216.557342 
L 107.371093 215.219399 
L 104.716251 213.661316 
L 102.161371 211.888928 
L 99.719061 209.91107 
L 97.401312 207.739485 
L 95.219329 205.388603 
L 93.183378 202.875222 
L 91.302656 200.218084 
L 89.585189 197.43739 
L 88.03776 194.554263 
L 86.665872 191.590202 
L 85.292752 188.058281 
L 84.168772 184.477937 
L 83.296235 180.879779 
L 82.675398 177.291599 
L 82.304686 173.737882 
L 82.180931 170.239536 
L 82.299633 166.813835 
L 82.655204 163.474526 
L 83.241211 160.232096 
L 84.050591 157.094129 
L 85.075838 154.065743 
L 86.309162 151.150061 
L 87.742609 148.348695 
L 89.36815 145.66223 
L 91.177739 143.090678 
L 93.163337 140.633915 
L 95.316904 138.29207 
L 97.973451 135.757393 
L 100.826666 133.376466 
L 103.864073 131.154062 
L 107.072713 129.097526 
L 110.438925 127.217097 
L 113.948108 125.526111 
L 117.584465 124.041044 
L 120.857092 122.925773 
L 124.201331 121.997763 
L 127.603519 121.273 
L 131.048842 120.768305 
L 134.521294 120.500786 
L 137.506273 120.47297 
L 140.487073 120.64163 
L 143.451632 121.015679 
L 146.387391 121.602627 
L 149.281395 122.408186 
L 152.120407 123.435894 
L 154.891052 124.686787 
L 157.579976 126.159134 
L 160.174015 127.848268 
L 162.660376 129.746522 
L 165.026815 131.843272 
L 167.261809 134.125113 
L 169.354718 136.576139 
L 171.295921 139.178326 
L 173.07693 141.911998 
L 174.690476 144.756348 
L 176.130557 147.689978 
L 177.585196 151.196798 
L 178.792073 154.762776 
L 179.748158 158.356539 
L 180.45253 161.949311 
L 180.906174 165.51548 
L 181.111748 169.032941 
L 181.07333 172.48322 
L 180.796164 175.851418 
L 180.28642 179.125995 
L 179.550966 182.29844 
L 178.597172 185.362858 
L 177.432744 188.315504 
L 176.065586 191.154307 
L 174.503706 193.878381 
L 172.755143 196.487562 
L 170.827938 198.981963 
L 168.730124 201.361572 
L 166.469752 203.625877 
L 163.697833 206.070688 
L 160.736525 208.359264 
L 157.598562 210.485374 
L 154.297283 212.440012 
L 150.846868 214.211148 
L 147.262583 215.783613 
L 143.561035 217.139156 
L 140.240237 218.130811 
L 136.856846 218.924692 
L 133.425281 219.504215 
L 129.961146 219.852312 
L 126.481239 219.952057 
L 123.499488 219.827676 
L 120.531261 219.499852 
L 117.58901 218.96074 
L 114.685607 218.204201 
L 111.834231 217.226191 
L 109.048233 216.0251 
L 106.34098 214.602029 
L 103.725687 212.960982 
L 101.21524 211.10896 
L 98.822013 209.055935 
L 96.557697 206.814706 
L 94.433136 204.400645 
L 92.458185 201.83133 
L 90.641586 199.1261 
L 88.990882 196.305545 
L 87.512357 193.390961 
L 86.011622 189.900394 
L 84.75773 186.344458 
L 83.754134 182.754919 
L 83.002144 179.161081 
L 82.501123 175.589176 
L 82.248718 172.061986 
L 82.241107 168.598668 
L 82.473252 165.214789 
L 82.939147 161.922504 
L 83.632047 158.730874 
L 84.544667 155.646262 
L 85.66936 152.672792 
L 86.998253 149.812821 
L 88.523356 147.067434 
L 90.236636 144.436905 
L 92.130053 141.921146 
L 94.195575 139.520126 
L 96.425159 137.23424 
L 99.163758 134.764328 
L 102.093783 132.449848 
L 105.202581 130.296611 
L 108.476931 128.313142 
L 111.902809 126.510955 
L 115.465147 124.904696 
L 119.147579 123.512109 
L 122.45419 122.48502 
L 125.825982 121.652631 
L 129.248755 121.031366 
L 132.707136 120.638234 
L 136.184556 120.490231 
L 139.166942 120.570843 
L 142.13849 120.852912 
L 145.086859 121.344606 
L 147.999267 122.052467 
L 150.862594 122.98103 
L 153.663519 124.132468 
L 156.38867 125.506297 
L 159.024786 127.099169 
L 161.558899 128.904749 
L 163.97851 130.913721 
L 166.271767 133.113897 
L 168.427627 135.490456 
L 170.436011 138.026281 
L 172.287922 140.702391 
L 173.975548 143.498439 
L 175.492324 146.393248 
L 177.038985 149.866722 
L 178.339778 153.411818 
L 179.390826 156.996402 
L 180.190424 160.590662 
L 180.738852 164.167754 
L 181.038154 167.704232 
L 181.091889 171.180249 
L 180.904879 174.579571 
L 180.482959 177.889413 
L 179.832749 181.100155 
L 178.961439 184.20495 
L 177.876619 187.199283 
L 176.586123 190.080492 
L 175.097923 192.847282 
L 173.420047 195.499256 
L 171.560532 198.036458 
L 169.52741 200.458957 
L 167.328718 202.766459 
L 164.623558 205.261463 
L 161.724939 207.601769 
L 158.645436 209.781981 
L 155.398162 211.794045 
L 151.996991 213.626953 
L 148.456799 215.266588 
L 144.793719 216.695711 
L 141.501537 217.757723 
L 138.141624 218.628059 
L 134.727963 219.29047 
L 131.275699 219.728021 
L 127.801172 219.92367 
L 124.818535 219.886329 
L 121.844075 219.649555 
L 118.890023 219.20488 
L 115.969069 218.545374 
L 113.094266 217.666029 
L 110.278899 216.564125 
L 107.53634 215.239538 
L 104.879885 213.69497 
L 102.322579 211.936088 
L 99.877038 209.971552 
L 97.555269 207.812928 
L 95.368503 205.474474 
L 93.327043 202.972828 
L 91.440133 200.326591 
L 89.715851 197.555846 
L 88.161042 194.681625 
L 86.781272 191.725367 
L 85.398412 188.201115 
L 84.264209 184.626897 
L 83.381073 181.03337 
L 82.749363 177.448415 
L 82.367597 173.896637 
L 82.232695 170.399084 
L 82.340229 166.973182 
L 82.684676 163.632835 
L 83.259657 160.388677 
L 84.058153 157.248432 
L 85.07269 154.217343 
L 86.295505 151.298636 
L 87.718663 148.494013 
L 89.33415 145.804122 
L 91.13393 143.229022 
L 93.109969 140.76861 
L 95.254238 138.423023 
L 97.900483 135.883936 
L 100.743756 133.498411 
L 103.771598 131.27115 
L 106.971075 129.209398 
L 110.328561 127.323282 
L 113.829495 125.626006 
L 117.458136 124.133909 
L 121.197314 122.866331 
L 124.545012 121.958609 
L 127.949187 121.255649 
L 131.394916 120.774291 
L 134.866089 120.5316 
L 137.848552 120.526167 
L 140.825466 120.718101 
L 143.784719 121.11615 
L 146.713716 121.727617 
L 149.599476 122.557962 
L 152.428756 123.61044 
L 155.188192 124.885769 
L 157.864458 126.381887 
L 160.444442 128.09379 
L 162.91542 130.013477 
L 165.265237 132.130015 
L 167.482478 134.429719 
L 169.556627 136.896451 
L 171.478195 139.512008 
L 173.238842 142.256598 
L 174.831444 145.109355 
L 176.250154 148.048891 
L 177.679514 151.559533 
L 178.860954 155.126215 
L 179.791655 158.717838 
L 180.470883 162.305953 
L 180.899787 165.865314 
L 181.081161 169.374187 
L 181.019196 172.814466 
L 180.719223 176.171596 
L 180.187474 179.434347 
L 179.430863 182.594471 
L 178.456785 185.64629 
L 177.272958 188.586228 
L 175.887293 191.412331 
L 174.307791 194.123783 
L 172.542488 196.720445 
L 170.599415 199.202417 
L 168.486601 201.569634 
L 165.874442 204.133706 
L 163.063236 206.544783 
L 160.065381 208.798545 
L 156.893718 210.888192 
L 153.561742 212.804093 
L 150.083842 214.533561 
L 146.475546 216.060775 
L 142.753771 217.366879 
L 139.418658 218.311429 
L 136.024382 219.054345 
L 132.585641 219.578899 
L 129.11832 219.868023 
L 125.639489 219.90496 
L 122.662251 219.723962 
L 119.702003 219.337312 
L 116.771315 218.737623 
L 113.883149 217.919325 
L 111.050735 216.879037 
L 108.287433 215.615898 
L 105.606572 214.131812 
L 103.021282 212.431623 
L 100.544308 210.523167 
L 98.187839 208.417221 
L 95.963333 206.127323 
L 93.881359 203.669484 
L 91.95146 201.061803 
L 90.182045 198.323995 
L 88.580299 195.476876 
L 87.152144 192.541817 
L 85.711473 189.034944 
L 84.51851 185.470524 
L 83.576179 181.879759 
L 82.885306 178.291228 
L 82.444827 174.730335 
L 82.252018 171.218977 
L 82.302751 167.775428 
L 82.591744 164.414405 
L 83.112803 161.147285 
L 83.859043 157.982448 
L 84.823088 154.925682 
L 85.997233 151.980653 
L 87.373577 149.149383 
L 88.94412 146.432731 
L 90.700829 143.830861 
L 92.635673 141.343676 
L 94.740622 138.971227 
L 97.007629 136.714082 
L 99.786515 134.277537 
L 102.75412 131.997428 
L 105.897691 129.880119 
L 109.203856 127.934751 
L 112.658392 126.173497 
L 116.245978 124.611658 
L 119.949943 123.267601 
L 123.272074 122.286777 
L 126.656014 121.504497 
L 130.087287 120.937358 
L 133.550236 120.602408 
L 137.028013 120.516511 
L 140.00715 120.653246 
L 142.97201 120.993779 
L 145.910124 121.545842 
L 148.808609 122.315442 
L 151.654284 123.306469 
L 154.433805 124.520367 
L 157.133823 125.955859 
L 159.741151 127.608759 
L 162.242945 129.471893 
L 164.626878 131.535123 
L 166.881318 133.785503 
L 168.995489 136.207539 
L 170.959609 138.783559 
L 172.765015 141.494165 
L 174.404243 144.318739 
L 175.871092 147.235991 
L 177.358058 150.728018 
L 178.598138 154.28374 
L 179.587992 157.871542 
L 180.326409 161.462301 
L 180.814114 165.029984 
L 181.053533 168.552015 
L 181.048546 172.009436 
L 180.804236 175.38687 
L 180.326641 178.672328 
L 179.622529 181.856894 
L 178.699195 184.934321 
L 177.564294 187.900576 
L 176.225696 190.753364 
L 174.691388 193.491639 
L 172.9694 196.115138 
L 171.067763 198.62394 
L 168.994507 201.018048 
L 166.757672 203.29702 
L 164.011382 205.758951 
L 161.074311 208.065257 
L 157.959133 210.210001 
L 154.6791 212.184523 
L 151.248278 213.977164 
L 147.681788 215.573142 
L 143.99606 216.954585 
L 140.687325 217.971132 
L 137.314174 218.792187 
L 133.890865 219.401303 
L 130.432826 219.781473 
L 126.956684 219.915747 
L 123.976176 219.822819 
L 121.007258 219.528008 
L 118.062293 219.023251 
L 115.15408 218.30213 
L 112.295746 217.360255 
L 109.50061 216.195619 
L 106.782033 214.808877 
L 104.153253 213.203562 
L 101.627203 211.386188 
L 99.216339 209.366244 
L 96.932459 207.156074 
L 94.786543 204.770637 
L 92.788599 202.227157 
L 90.947549 199.544693 
L 89.271126 196.743635 
L 87.765812 193.84517 
L 86.232744 190.369109 
L 84.945665 186.823149 
L 83.908334 183.239289 
L 83.122352 179.647173 
L 82.587346 176.073453 
L 82.301193 172.541377 
L 82.260268 169.070589 
L 82.459699 165.677133 
L 82.893612 162.373618 
L 83.555361 159.169515 
L 84.437737 156.071542 
L 85.533143 153.084114 
L 86.83374 150.209822 
L 88.331558 147.449913 
L 90.018573 144.804762 
L 91.886751 142.274325 
L 93.928064 139.858555 
L 96.134476 137.557784 
L 98.847879 135.070549 
L 101.754114 132.738191 
L 104.840585 130.566231 
L 108.09415 128.562857 
L 111.500896 126.739219 
L 115.045892 125.109577 
L 118.712943 123.691303 
L 122.007859 122.639576 
L 125.369758 121.780329 
L 128.784601 121.129846 
L 132.237181 120.705067 
L 135.711101 120.523005 
L 138.692442 120.572588 
L 141.664855 120.822085 
L 144.616086 121.279865 
L 147.533424 121.952745 
L 150.403804 122.845591 
L 153.213938 123.960965 
L 155.95046 125.298818 
L 158.600093 126.856268 
L 161.14982 128.627462 
L 163.587065 130.603562 
L 165.899871 132.772837 
L 168.077066 135.120883 
L 170.108413 137.630942 
L 171.984745 140.284319 
L 173.698059 143.060876 
L 175.241592 145.939556 
L 176.609859 148.898929 
L 177.979117 152.425176 
L 179.099638 155.999728 
L 179.969122 159.592081 
L 180.58731 163.174534 
L 180.95577 166.722678 
L 181.077654 170.215664 
L 180.957449 173.636262 
L 180.600722 176.97075 
L 180.013886 180.208654 
L 179.203984 183.34239 
L 178.1785 186.366826 
L 176.945207 189.278821 
L 175.512042 192.076735 
L 173.887016 194.759951 
L 172.078163 197.328421 
L 170.093513 199.782237 
L 167.941095 202.12123 
L 165.286104 204.652724 
L 162.434698 207.030501 
L 159.399353 209.249743 
L 156.193029 211.303074 
L 152.829391 213.180226 
L 149.323049 214.867851 
L 145.689804 216.349468 
L 142.420129 217.46166 
L 139.07906 218.386554 
L 135.68026 219.108194 
L 132.238543 219.609799 
L 128.76991 219.874309 
L 125.78837 219.899657 
L 122.811152 219.728674 
L 119.850309 219.352493 
L 116.918387 218.763651 
L 114.028326 217.956481 
L 111.193344 216.927489 
L 108.426794 215.675682 
L 105.742009 214.202822 
L 103.152126 212.513604 
L 100.669914 210.615712 
L 98.307588 208.519775 
L 96.076645 206.239195 
L 93.987698 203.789861 
L 92.050344 201.18977 
L 90.273046 198.458563 
L 88.663054 195.617003 
L 87.22635 192.686439 
L 85.775409 189.183471 
L 84.571953 185.62156 
L 83.618998 182.031996 
L 82.917461 178.443474 
L 82.466354 174.881535 
L 82.263024 171.368228 
L 82.303399 167.921978 
L 82.582245 164.557651 
L 83.093405 161.286762 
L 83.830023 158.117812 
L 84.784743 155.056696 
L 85.949873 152.107163 
L 87.317521 149.2713 
L 88.879691 146.550012 
L 90.628353 143.943485 
L 92.555475 141.451631 
L 94.653031 139.074491 
L 96.912974 136.812605 
L 99.684198 134.370531 
L 102.64459 132.084699 
L 105.781416 129.961379 
L 109.081333 128.009604 
L 112.530153 126.241428 
L 116.112601 124.672035 
L 119.812063 123.319677 
L 123.130822 122.330895 
L 126.511972 121.539953 
L 129.941088 120.96341 
L 133.402564 120.6183 
L 136.879605 120.521508 
L 139.858737 120.648353 
L 142.824199 120.97854 
L 145.763547 121.519876 
L 148.66392 122.278459 
L 151.512149 123.258291 
L 154.294899 124.460943 
L 156.998818 125.885277 
L 159.610711 127.527257 
L 162.117714 129.379857 
L 164.507472 131.433089 
L 166.768319 133.674144 
L 168.889432 136.087652 
L 170.86098 138.656043 
L 172.674242 141.36 
L 174.321695 144.178959 
L 175.797073 147.091658 
L 177.294291 150.579712 
L 178.544852 154.132862 
L 179.545319 157.71941 
L 180.294395 161.31012 
L 180.792724 164.878822 
L 181.042662 168.402792 
L 181.048031 171.862919 
L 180.813865 175.243675 
L 180.346164 178.532934 
L 179.651667 181.721653 
L 178.737648 184.803479 
L 177.611748 187.774292 
L 176.281829 190.631728 
L 174.755872 193.374695 
L 173.041906 196.002904 
L 171.147961 198.516423 
L 169.082066 200.915265 
L 166.85226 203.19901 
L 164.11359 205.666494 
L 161.183689 207.978531 
L 158.075212 210.129277 
L 154.801385 212.110178 
L 151.376239 213.90969 
L 147.814853 215.51315 
L 144.133602 216.902801 
L 140.828221 217.927206 
L 137.45785 218.756809 
L 134.036697 219.375201 
L 130.580139 219.765395 
L 127.10475 219.910424 
L 124.124271 219.827268 
L 121.154781 219.542687 
L 118.208618 219.04855 
L 115.298561 218.33835 
L 112.43772 217.40759 
L 109.639409 216.254137 
L 106.916986 214.878511 
L 104.283698 213.284098 
L 101.752498 211.477259 
L 99.335865 209.467339 
L 97.045635 207.266542 
L 94.892827 204.889699 
L 92.887504 202.35393 
L 91.038639 199.678208 
L 89.354027 196.882867 
L 87.840214 193.989061 
L 86.296921 190.517096 
L 84.999379 186.973824 
L 83.951445 183.391322 
L 83.154809 179.799344 
L 82.609177 176.224676 
L 82.312498 172.690712 
L 82.261208 169.217251 
L 82.450485 165.820488 
L 82.874492 162.513172 
L 83.526615 159.304902 
L 84.399667 156.202504 
L 85.486064 153.210487 
L 86.777978 150.331509 
L 88.267443 147.566866 
L 89.946436 144.916966 
L 91.806925 142.381776 
L 93.840883 139.961241 
L 96.040273 137.655673 
L 98.746067 135.16287 
L 101.645143 132.824782 
L 104.724923 130.646838 
L 107.97229 128.637124 
L 111.373362 126.806673 
L 114.913254 125.16963 
L 118.575819 123.74325 
L 121.867366 122.683771 
L 125.226462 121.816093 
L 128.639117 121.15646 
L 132.090175 120.721793 
L 135.563292 120.529109 
L 138.544554 120.569037 
L 141.517482 120.808413 
L 144.469847 121.255673 
L 147.38896 121.917717 
L 150.261772 122.799517 
L 153.075005 123.903755 
L 155.815293 125.230518 
L 158.469353 126.777066 
L 161.024151 128.537698 
L 163.467088 130.503723 
L 165.786172 132.663553 
L 167.970189 135.002908 
L 170.008855 137.505142 
L 171.892946 140.15165 
L 173.614402 142.922354 
L 175.166396 145.796234 
L 176.543381 148.75187 
L 177.923049 152.275073 
L 179.054145 155.847939 
L 179.934277 159.439859 
L 180.563103 163.023006 
L 180.942118 166.572825 
L 181.07441 170.068315 
L 180.964412 173.492095 
L 180.617651 176.830297 
L 180.040505 180.072315 
L 179.239995 183.210449 
L 178.223589 186.239474 
L 176.999047 189.156168 
L 175.574302 191.958837 
L 173.957362 194.64683 
L 172.156261 197.220081 
L 170.179028 199.678682 
L 168.033692 202.022482 
L 165.38638 204.559537 
L 162.542203 206.943013 
L 159.513622 209.168179 
L 156.313576 211.22776 
L 152.9557 213.1116 
L 149.454562 214.806464 
L 145.825917 216.295993 
L 142.559726 217.415741 
L 139.221587 218.348849 
L 135.825119 219.079406 
L 132.385084 219.590659 
L 128.917432 219.865551 
L 125.439298 219.887373 
L 122.46352 219.692789 
L 119.505563 219.292065 
L 116.578023 218.67793 
L 113.693878 217.844953 
L 110.866369 216.78992 
L 108.108855 215.512146 
L 105.434652 214.013733 
L 102.856864 212.299723 
L 100.388203 210.378149 
L 98.040808 208.259975 
L 95.826078 205.958909 
L 93.754515 203.491108 
L 91.835586 200.874783 
L 90.077617 198.129732 
L 88.48771 195.276812 
L 87.071698 192.337403 
L 85.645463 188.827251 
L 84.467101 185.261389 
L 83.539412 181.670874 
L 82.863109 178.084107 
L 82.437029 174.526288 
L 82.258364 171.019101 
L 82.322918 167.580609 
L 82.625352 164.225329 
L 83.159431 160.96446 
L 83.918241 157.80622 
L 84.894386 154.756268 
L 86.080149 151.818167 
L 87.467624 148.993863 
L 89.04881 146.284171 
L 90.815677 143.689231 
L 92.760194 141.208952 
L 94.874334 138.843408 
L 97.487865 136.281244 
L 100.300291 133.872091 
L 103.29921 131.620299 
L 106.471776 129.532698 
L 109.804487 127.618948 
L 113.282945 125.891764 
L 116.891611 124.366996 
L 120.613553 123.063521 
L 123.948633 122.121432 
L 127.342698 121.381134 
L 130.78104 120.859351 
L 134.247763 120.573143 
L 135.241107 120.536999 
L 135.241107 120.536999 
" style="fill:none;stroke:#1f77b4;stroke-linecap:square;stroke-width:1.5;"/>
   </g>
   <g id="patch_3">
    <path d="M 57.6 248.594304 
L 57.6 100.461696 
" style="fill:none;stroke:#000000;stroke-linecap:square;stroke-linejoin:miter;stroke-width:0.8;"/>
   </g>
   <g id="patch_4">
    <path d="M 219.927273 248.594304 
L 219.927273 100.461696 
" style="fill:none;stroke:#000000;stroke-linecap:square;stroke-linejoin:miter;stroke-width:0.8;"/>
   </g>
   <g id="patch_5">
    <path d="M 57.6 248.594304 
L 219.927273 248.594304 
" style="fill:none;stroke:#000000;stroke-linecap:square;stroke-linejoin:miter;stroke-width:0.8;"/>
   </g>
   <g id="patch_6">
    <path d="M 57.6 100.461696 
L 219.927273 100.461696 
" style="fill:none;stroke:#000000;stroke-linecap:square;stroke-linejoin:miter;stroke-width:0.8;"/>
   </g>
   <g id="text_12">
    <!-- Phase space y(t) over x(t) -->
    <g transform="translate(61.067386 94.461696)scale(0.12 -0.12)">
     <defs>
      <path d="M 19.671875 64.796875 
L 19.671875 37.40625 
L 32.078125 37.40625 
Q 38.96875 37.40625 42.71875 40.96875 
Q 46.484375 44.53125 46.484375 51.125 
Q 46.484375 57.671875 42.71875 61.234375 
Q 38.96875 64.796875 32.078125 64.796875 
z
M 9.8125 72.90625 
L 32.078125 72.90625 
Q 44.34375 72.90625 50.609375 67.359375 
Q 56.890625 61.8125 56.890625 51.125 
Q 56.890625 40.328125 50.609375 34.8125 
Q 44.34375 29.296875 32.078125 29.296875 
L 19.671875 29.296875 
L 19.671875 0 
L 9.8125 0 
z
" id="DejaVuSans-80"/>
      <path d="M 54.890625 33.015625 
L 54.890625 0 
L 45.90625 0 
L 45.90625 32.71875 
Q 45.90625 40.484375 42.875 44.328125 
Q 39.84375 48.1875 33.796875 48.1875 
Q 26.515625 48.1875 22.3125 43.546875 
Q 18.109375 38.921875 18.109375 30.90625 
L 18.109375 0 
L 9.078125 0 
L 9.078125 75.984375 
L 18.109375 75.984375 
L 18.109375 46.1875 
Q 21.34375 51.125 25.703125 53.5625 
Q 30.078125 56 35.796875 56 
Q 45.21875 56 50.046875 50.171875 
Q 54.890625 44.34375 54.890625 33.015625 
z
" id="DejaVuSans-104"/>
      <path d="M 34.28125 27.484375 
Q 23.390625 27.484375 19.1875 25 
Q 14.984375 22.515625 14.984375 16.5 
Q 14.984375 11.71875 18.140625 8.90625 
Q 21.296875 6.109375 26.703125 6.109375 
Q 34.1875 6.109375 38.703125 11.40625 
Q 43.21875 16.703125 43.21875 25.484375 
L 43.21875 27.484375 
z
M 52.203125 31.203125 
L 52.203125 0 
L 43.21875 0 
L 43.21875 8.296875 
Q 40.140625 3.328125 35.546875 0.953125 
Q 30.953125 -1.421875 24.3125 -1.421875 
Q 15.921875 -1.421875 10.953125 3.296875 
Q 6 8.015625 6 15.921875 
Q 6 25.140625 12.171875 29.828125 
Q 18.359375 34.515625 30.609375 34.515625 
L 43.21875 34.515625 
L 43.21875 35.40625 
Q 43.21875 41.609375 39.140625 45 
Q 35.0625 48.390625 27.6875 48.390625 
Q 23 48.390625 18.546875 47.265625 
Q 14.109375 46.140625 10.015625 43.890625 
L 10.015625 52.203125 
Q 14.9375 54.109375 19.578125 55.046875 
Q 24.21875 56 28.609375 56 
Q 40.484375 56 46.34375 49.84375 
Q 52.203125 43.703125 52.203125 31.203125 
z
" id="DejaVuSans-97"/>
      <path d="M 44.28125 53.078125 
L 44.28125 44.578125 
Q 40.484375 46.53125 36.375 47.5 
Q 32.28125 48.484375 27.875 48.484375 
Q 21.1875 48.484375 17.84375 46.4375 
Q 14.5 44.390625 14.5 40.28125 
Q 14.5 37.15625 16.890625 35.375 
Q 19.28125 33.59375 26.515625 31.984375 
L 29.59375 31.296875 
Q 39.15625 29.25 43.1875 25.515625 
Q 47.21875 21.78125 47.21875 15.09375 
Q 47.21875 7.46875 41.1875 3.015625 
Q 35.15625 -1.421875 24.609375 -1.421875 
Q 20.21875 -1.421875 15.453125 -0.5625 
Q 10.6875 0.296875 5.421875 2 
L 5.421875 11.28125 
Q 10.40625 8.6875 15.234375 7.390625 
Q 20.0625 6.109375 24.8125 6.109375 
Q 31.15625 6.109375 34.5625 8.28125 
Q 37.984375 10.453125 37.984375 14.40625 
Q 37.984375 18.0625 35.515625 20.015625 
Q 33.0625 21.96875 24.703125 23.78125 
L 21.578125 24.515625 
Q 13.234375 26.265625 9.515625 29.90625 
Q 5.8125 33.546875 5.8125 39.890625 
Q 5.8125 47.609375 11.28125 51.796875 
Q 16.75 56 26.8125 56 
Q 31.78125 56 36.171875 55.265625 
Q 40.578125 54.546875 44.28125 53.078125 
z
" id="DejaVuSans-115"/>
      <path d="M 56.203125 29.59375 
L 56.203125 25.203125 
L 14.890625 25.203125 
Q 15.484375 15.921875 20.484375 11.0625 
Q 25.484375 6.203125 34.421875 6.203125 
Q 39.59375 6.203125 44.453125 7.46875 
Q 49.3125 8.734375 54.109375 11.28125 
L 54.109375 2.78125 
Q 49.265625 0.734375 44.1875 -0.34375 
Q 39.109375 -1.421875 33.890625 -1.421875 
Q 20.796875 -1.421875 13.15625 6.1875 
Q 5.515625 13.8125 5.515625 26.8125 
Q 5.515625 40.234375 12.765625 48.109375 
Q 20.015625 56 32.328125 56 
Q 43.359375 56 49.78125 48.890625 
Q 56.203125 41.796875 56.203125 29.59375 
z
M 47.21875 32.234375 
Q 47.125 39.59375 43.09375 43.984375 
Q 39.0625 48.390625 32.421875 48.390625 
Q 24.90625 48.390625 20.390625 44.140625 
Q 15.875 39.890625 15.1875 32.171875 
z
" id="DejaVuSans-101"/>
      <path id="DejaVuSans-32"/>
      <path d="M 18.109375 8.203125 
L 18.109375 -20.796875 
L 9.078125 -20.796875 
L 9.078125 54.6875 
L 18.109375 54.6875 
L 18.109375 46.390625 
Q 20.953125 51.265625 25.265625 53.625 
Q 29.59375 56 35.59375 56 
Q 45.5625 56 51.78125 48.09375 
Q 58.015625 40.1875 58.015625 27.296875 
Q 58.015625 14.40625 51.78125 6.484375 
Q 45.5625 -1.421875 35.59375 -1.421875 
Q 29.59375 -1.421875 25.265625 0.953125 
Q 20.953125 3.328125 18.109375 8.203125 
z
M 48.6875 27.296875 
Q 48.6875 37.203125 44.609375 42.84375 
Q 40.53125 48.484375 33.40625 48.484375 
Q 26.265625 48.484375 22.1875 42.84375 
Q 18.109375 37.203125 18.109375 27.296875 
Q 18.109375 17.390625 22.1875 11.75 
Q 26.265625 6.109375 33.40625 6.109375 
Q 40.53125 6.109375 44.609375 11.75 
Q 48.6875 17.390625 48.6875 27.296875 
z
" id="DejaVuSans-112"/>
      <path d="M 48.78125 52.59375 
L 48.78125 44.1875 
Q 44.96875 46.296875 41.140625 47.34375 
Q 37.3125 48.390625 33.40625 48.390625 
Q 24.65625 48.390625 19.8125 42.84375 
Q 14.984375 37.3125 14.984375 27.296875 
Q 14.984375 17.28125 19.8125 11.734375 
Q 24.65625 6.203125 33.40625 6.203125 
Q 37.3125 6.203125 41.140625 7.25 
Q 44.96875 8.296875 48.78125 10.40625 
L 48.78125 2.09375 
Q 45.015625 0.34375 40.984375 -0.53125 
Q 36.96875 -1.421875 32.421875 -1.421875 
Q 20.0625 -1.421875 12.78125 6.34375 
Q 5.515625 14.109375 5.515625 27.296875 
Q 5.515625 40.671875 12.859375 48.328125 
Q 20.21875 56 33.015625 56 
Q 37.15625 56 41.109375 55.140625 
Q 45.0625 54.296875 48.78125 52.59375 
z
" id="DejaVuSans-99"/>
      <path d="M 32.171875 -5.078125 
Q 28.375 -14.84375 24.75 -17.8125 
Q 21.140625 -20.796875 15.09375 -20.796875 
L 7.90625 -20.796875 
L 7.90625 -13.28125 
L 13.1875 -13.28125 
Q 16.890625 -13.28125 18.9375 -11.515625 
Q 21 -9.765625 23.484375 -3.21875 
L 25.09375 0.875 
L 2.984375 54.6875 
L 12.5 54.6875 
L 29.59375 11.921875 
L 46.6875 54.6875 
L 56.203125 54.6875 
z
" id="DejaVuSans-121"/>
      <path d="M 30.609375 48.390625 
Q 23.390625 48.390625 19.1875 42.75 
Q 14.984375 37.109375 14.984375 27.296875 
Q 14.984375 17.484375 19.15625 11.84375 
Q 23.34375 6.203125 30.609375 6.203125 
Q 37.796875 6.203125 41.984375 11.859375 
Q 46.1875 17.53125 46.1875 27.296875 
Q 46.1875 37.015625 41.984375 42.703125 
Q 37.796875 48.390625 30.609375 48.390625 
z
M 30.609375 56 
Q 42.328125 56 49.015625 48.375 
Q 55.71875 40.765625 55.71875 27.296875 
Q 55.71875 13.875 49.015625 6.21875 
Q 42.328125 -1.421875 30.609375 -1.421875 
Q 18.84375 -1.421875 12.171875 6.21875 
Q 5.515625 13.875 5.515625 27.296875 
Q 5.515625 40.765625 12.171875 48.375 
Q 18.84375 56 30.609375 56 
z
" id="DejaVuSans-111"/>
      <path d="M 41.109375 46.296875 
Q 39.59375 47.171875 37.8125 47.578125 
Q 36.03125 48 33.890625 48 
Q 26.265625 48 22.1875 43.046875 
Q 18.109375 38.09375 18.109375 28.8125 
L 18.109375 0 
L 9.078125 0 
L 9.078125 54.6875 
L 18.109375 54.6875 
L 18.109375 46.1875 
Q 20.953125 51.171875 25.484375 53.578125 
Q 30.03125 56 36.53125 56 
Q 37.453125 56 38.578125 55.875 
Q 39.703125 55.765625 41.0625 55.515625 
z
" id="DejaVuSans-114"/>
     </defs>
     <use xlink:href="#DejaVuSans-80"/>
     <use x="60.302734" xlink:href="#DejaVuSans-104"/>
     <use x="123.681641" xlink:href="#DejaVuSans-97"/>
     <use x="184.960938" xlink:href="#DejaVuSans-115"/>
     <use x="237.060547" xlink:href="#DejaVuSans-101"/>
     <use x="298.583984" xlink:href="#DejaVuSans-32"/>
     <use x="330.371094" xlink:href="#DejaVuSans-115"/>
     <use x="382.470703" xlink:href="#DejaVuSans-112"/>
     <use x="445.947266" xlink:href="#DejaVuSans-97"/>
     <use x="507.226562" xlink:href="#DejaVuSans-99"/>
     <use x="562.207031" xlink:href="#DejaVuSans-101"/>
     <use x="623.730469" xlink:href="#DejaVuSans-32"/>
     <use x="655.517578" xlink:href="#DejaVuSans-121"/>
     <use x="714.697266" xlink:href="#DejaVuSans-40"/>
     <use x="753.710938" xlink:href="#DejaVuSans-116"/>
     <use x="792.919922" xlink:href="#DejaVuSans-41"/>
     <use x="831.933594" xlink:href="#DejaVuSans-32"/>
     <use x="863.720703" xlink:href="#DejaVuSans-111"/>
     <use x="924.902344" xlink:href="#DejaVuSans-118"/>
     <use x="984.082031" xlink:href="#DejaVuSans-101"/>
     <use x="1045.605469" xlink:href="#DejaVuSans-114"/>
     <use x="1086.71875" xlink:href="#DejaVuSans-32"/>
     <use x="1118.505859" xlink:href="#DejaVuSans-120"/>
     <use x="1177.685547" xlink:href="#DejaVuSans-40"/>
     <use x="1216.699219" xlink:href="#DejaVuSans-116"/>
     <use x="1255.908203" xlink:href="#DejaVuSans-41"/>
    </g>
   </g>
  </g>
  <g id="axes_2">
   <g id="patch_7">
    <path d="M 252.392727 249.69822 
L 414.72 249.69822 
L 414.72 99.35778 
L 252.392727 99.35778 
z
" style="fill:#ffffff;"/>
   </g>
   <g id="matplotlib.axis_3">
    <g id="xtick_4">
     <g id="line2d_11">
      <g>
       <use style="stroke:#000000;stroke-width:0.8;" x="259.77124" xlink:href="#m11dedbd2e2" y="249.69822"/>
      </g>
     </g>
     <g id="text_13">
      <!-- 0 -->
      <g transform="translate(256.58999 264.296658)scale(0.1 -0.1)">
       <use xlink:href="#DejaVuSans-48"/>
      </g>
     </g>
    </g>
    <g id="xtick_5">
     <g id="line2d_12">
      <g>
       <use style="stroke:#000000;stroke-width:0.8;" x="296.663802" xlink:href="#m11dedbd2e2" y="249.69822"/>
      </g>
     </g>
     <g id="text_14">
      <!-- 25 -->
      <g transform="translate(290.301302 264.296658)scale(0.1 -0.1)">
       <defs>
        <path d="M 10.796875 72.90625 
L 49.515625 72.90625 
L 49.515625 64.59375 
L 19.828125 64.59375 
L 19.828125 46.734375 
Q 21.96875 47.46875 24.109375 47.828125 
Q 26.265625 48.1875 28.421875 48.1875 
Q 40.625 48.1875 47.75 41.5 
Q 54.890625 34.8125 54.890625 23.390625 
Q 54.890625 11.625 47.5625 5.09375 
Q 40.234375 -1.421875 26.90625 -1.421875 
Q 22.3125 -1.421875 17.546875 -0.640625 
Q 12.796875 0.140625 7.71875 1.703125 
L 7.71875 11.625 
Q 12.109375 9.234375 16.796875 8.0625 
Q 21.484375 6.890625 26.703125 6.890625 
Q 35.15625 6.890625 40.078125 11.328125 
Q 45.015625 15.765625 45.015625 23.390625 
Q 45.015625 31 40.078125 35.4375 
Q 35.15625 39.890625 26.703125 39.890625 
Q 22.75 39.890625 18.8125 39.015625 
Q 14.890625 38.140625 10.796875 36.28125 
z
" id="DejaVuSans-53"/>
       </defs>
       <use xlink:href="#DejaVuSans-50"/>
       <use x="63.623047" xlink:href="#DejaVuSans-53"/>
      </g>
     </g>
    </g>
    <g id="xtick_6">
     <g id="line2d_13">
      <g>
       <use style="stroke:#000000;stroke-width:0.8;" x="333.556364" xlink:href="#m11dedbd2e2" y="249.69822"/>
      </g>
     </g>
     <g id="text_15">
      <!-- 50 -->
      <g transform="translate(327.193864 264.296658)scale(0.1 -0.1)">
       <use xlink:href="#DejaVuSans-53"/>
       <use x="63.623047" xlink:href="#DejaVuSans-48"/>
      </g>
     </g>
    </g>
    <g id="xtick_7">
     <g id="line2d_14">
      <g>
       <use style="stroke:#000000;stroke-width:0.8;" x="370.448926" xlink:href="#m11dedbd2e2" y="249.69822"/>
      </g>
     </g>
     <g id="text_16">
      <!-- 75 -->
      <g transform="translate(364.086426 264.296658)scale(0.1 -0.1)">
       <defs>
        <path d="M 8.203125 72.90625 
L 55.078125 72.90625 
L 55.078125 68.703125 
L 28.609375 0 
L 18.3125 0 
L 43.21875 64.59375 
L 8.203125 64.59375 
z
" id="DejaVuSans-55"/>
       </defs>
       <use xlink:href="#DejaVuSans-55"/>
       <use x="63.623047" xlink:href="#DejaVuSans-53"/>
      </g>
     </g>
    </g>
    <g id="xtick_8">
     <g id="line2d_15">
      <g>
       <use style="stroke:#000000;stroke-width:0.8;" x="407.341488" xlink:href="#m11dedbd2e2" y="249.69822"/>
      </g>
     </g>
     <g id="text_17">
      <!-- 100 -->
      <g transform="translate(397.797738 264.296658)scale(0.1 -0.1)">
       <use xlink:href="#DejaVuSans-49"/>
       <use x="63.623047" xlink:href="#DejaVuSans-48"/>
       <use x="127.246094" xlink:href="#DejaVuSans-48"/>
      </g>
     </g>
    </g>
    <g id="text_18">
     <!-- Time t -->
     <g transform="translate(317.773551 277.974783)scale(0.1 -0.1)">
      <defs>
       <path d="M -0.296875 72.90625 
L 61.375 72.90625 
L 61.375 64.59375 
L 35.5 64.59375 
L 35.5 0 
L 25.59375 0 
L 25.59375 64.59375 
L -0.296875 64.59375 
z
" id="DejaVuSans-84"/>
       <path d="M 9.421875 54.6875 
L 18.40625 54.6875 
L 18.40625 0 
L 9.421875 0 
z
M 9.421875 75.984375 
L 18.40625 75.984375 
L 18.40625 64.59375 
L 9.421875 64.59375 
z
" id="DejaVuSans-105"/>
       <path d="M 52 44.1875 
Q 55.375 50.25 60.0625 53.125 
Q 64.75 56 71.09375 56 
Q 79.640625 56 84.28125 50.015625 
Q 88.921875 44.046875 88.921875 33.015625 
L 88.921875 0 
L 79.890625 0 
L 79.890625 32.71875 
Q 79.890625 40.578125 77.09375 44.375 
Q 74.3125 48.1875 68.609375 48.1875 
Q 61.625 48.1875 57.5625 43.546875 
Q 53.515625 38.921875 53.515625 30.90625 
L 53.515625 0 
L 44.484375 0 
L 44.484375 32.71875 
Q 44.484375 40.625 41.703125 44.40625 
Q 38.921875 48.1875 33.109375 48.1875 
Q 26.21875 48.1875 22.15625 43.53125 
Q 18.109375 38.875 18.109375 30.90625 
L 18.109375 0 
L 9.078125 0 
L 9.078125 54.6875 
L 18.109375 54.6875 
L 18.109375 46.1875 
Q 21.1875 51.21875 25.484375 53.609375 
Q 29.78125 56 35.6875 56 
Q 41.65625 56 45.828125 52.96875 
Q 50 49.953125 52 44.1875 
z
" id="DejaVuSans-109"/>
      </defs>
      <use xlink:href="#DejaVuSans-84"/>
      <use x="57.958984" xlink:href="#DejaVuSans-105"/>
      <use x="85.742188" xlink:href="#DejaVuSans-109"/>
      <use x="183.154297" xlink:href="#DejaVuSans-101"/>
      <use x="244.677734" xlink:href="#DejaVuSans-32"/>
      <use x="276.464844" xlink:href="#DejaVuSans-116"/>
     </g>
    </g>
   </g>
   <g id="matplotlib.axis_4">
    <g id="ytick_7">
     <g id="line2d_16">
      <defs>
       <path d="M 0 0 
L 3.5 0 
" id="m72a3cf669e" style="stroke:#000000;stroke-width:0.8;"/>
      </defs>
      <g>
       <use style="stroke:#000000;stroke-width:0.8;" x="414.72" xlink:href="#m72a3cf669e" y="245.074404"/>
      </g>
     </g>
     <g id="text_19">
      <!-- −3 -->
      <g transform="translate(421.72 248.873623)scale(0.1 -0.1)">
       <use xlink:href="#DejaVuSans-8722"/>
       <use x="83.789062" xlink:href="#DejaVuSans-51"/>
      </g>
     </g>
    </g>
    <g id="ytick_8">
     <g id="line2d_17">
      <g>
       <use style="stroke:#000000;stroke-width:0.8;" x="414.72" xlink:href="#m72a3cf669e" y="222.938867"/>
      </g>
     </g>
     <g id="text_20">
      <!-- −2 -->
      <g transform="translate(421.72 226.738086)scale(0.1 -0.1)">
       <use xlink:href="#DejaVuSans-8722"/>
       <use x="83.789062" xlink:href="#DejaVuSans-50"/>
      </g>
     </g>
    </g>
    <g id="ytick_9">
     <g id="line2d_18">
      <g>
       <use style="stroke:#000000;stroke-width:0.8;" x="414.72" xlink:href="#m72a3cf669e" y="200.80333"/>
      </g>
     </g>
     <g id="text_21">
      <!-- −1 -->
      <g transform="translate(421.72 204.602549)scale(0.1 -0.1)">
       <use xlink:href="#DejaVuSans-8722"/>
       <use x="83.789062" xlink:href="#DejaVuSans-49"/>
      </g>
     </g>
    </g>
    <g id="ytick_10">
     <g id="line2d_19">
      <g>
       <use style="stroke:#000000;stroke-width:0.8;" x="414.72" xlink:href="#m72a3cf669e" y="178.667793"/>
      </g>
     </g>
     <g id="text_22">
      <!-- 0 -->
      <g transform="translate(421.72 182.467011)scale(0.1 -0.1)">
       <use xlink:href="#DejaVuSans-48"/>
      </g>
     </g>
    </g>
    <g id="ytick_11">
     <g id="line2d_20">
      <g>
       <use style="stroke:#000000;stroke-width:0.8;" x="414.72" xlink:href="#m72a3cf669e" y="156.532255"/>
      </g>
     </g>
     <g id="text_23">
      <!-- 1 -->
      <g transform="translate(421.72 160.331474)scale(0.1 -0.1)">
       <use xlink:href="#DejaVuSans-49"/>
      </g>
     </g>
    </g>
    <g id="ytick_12">
     <g id="line2d_21">
      <g>
       <use style="stroke:#000000;stroke-width:0.8;" x="414.72" xlink:href="#m72a3cf669e" y="134.396718"/>
      </g>
     </g>
     <g id="text_24">
      <!-- 2 -->
      <g transform="translate(421.72 138.195937)scale(0.1 -0.1)">
       <use xlink:href="#DejaVuSans-50"/>
      </g>
     </g>
    </g>
    <g id="ytick_13">
     <g id="line2d_22">
      <g>
       <use style="stroke:#000000;stroke-width:0.8;" x="414.72" xlink:href="#m72a3cf669e" y="112.261181"/>
      </g>
     </g>
     <g id="text_25">
      <!-- 3 -->
      <g transform="translate(421.72 116.0604)scale(0.1 -0.1)">
       <use xlink:href="#DejaVuSans-51"/>
      </g>
     </g>
    </g>
    <g id="text_26">
     <!-- Amplitude -->
     <g transform="translate(448.060625 200.150656)rotate(-90)scale(0.1 -0.1)">
      <defs>
       <path d="M 34.1875 63.1875 
L 20.796875 26.90625 
L 47.609375 26.90625 
z
M 28.609375 72.90625 
L 39.796875 72.90625 
L 67.578125 0 
L 57.328125 0 
L 50.6875 18.703125 
L 17.828125 18.703125 
L 11.1875 0 
L 0.78125 0 
z
" id="DejaVuSans-65"/>
       <path d="M 9.421875 75.984375 
L 18.40625 75.984375 
L 18.40625 0 
L 9.421875 0 
z
" id="DejaVuSans-108"/>
       <path d="M 8.5 21.578125 
L 8.5 54.6875 
L 17.484375 54.6875 
L 17.484375 21.921875 
Q 17.484375 14.15625 20.5 10.265625 
Q 23.53125 6.390625 29.59375 6.390625 
Q 36.859375 6.390625 41.078125 11.03125 
Q 45.3125 15.671875 45.3125 23.6875 
L 45.3125 54.6875 
L 54.296875 54.6875 
L 54.296875 0 
L 45.3125 0 
L 45.3125 8.40625 
Q 42.046875 3.421875 37.71875 1 
Q 33.40625 -1.421875 27.6875 -1.421875 
Q 18.265625 -1.421875 13.375 4.4375 
Q 8.5 10.296875 8.5 21.578125 
z
M 31.109375 56 
z
" id="DejaVuSans-117"/>
       <path d="M 45.40625 46.390625 
L 45.40625 75.984375 
L 54.390625 75.984375 
L 54.390625 0 
L 45.40625 0 
L 45.40625 8.203125 
Q 42.578125 3.328125 38.25 0.953125 
Q 33.9375 -1.421875 27.875 -1.421875 
Q 17.96875 -1.421875 11.734375 6.484375 
Q 5.515625 14.40625 5.515625 27.296875 
Q 5.515625 40.1875 11.734375 48.09375 
Q 17.96875 56 27.875 56 
Q 33.9375 56 38.25 53.625 
Q 42.578125 51.265625 45.40625 46.390625 
z
M 14.796875 27.296875 
Q 14.796875 17.390625 18.875 11.75 
Q 22.953125 6.109375 30.078125 6.109375 
Q 37.203125 6.109375 41.296875 11.75 
Q 45.40625 17.390625 45.40625 27.296875 
Q 45.40625 37.203125 41.296875 42.84375 
Q 37.203125 48.484375 30.078125 48.484375 
Q 22.953125 48.484375 18.875 42.84375 
Q 14.796875 37.203125 14.796875 27.296875 
z
" id="DejaVuSans-100"/>
      </defs>
      <use xlink:href="#DejaVuSans-65"/>
      <use x="68.408203" xlink:href="#DejaVuSans-109"/>
      <use x="165.820312" xlink:href="#DejaVuSans-112"/>
      <use x="229.296875" xlink:href="#DejaVuSans-108"/>
      <use x="257.080078" xlink:href="#DejaVuSans-105"/>
      <use x="284.863281" xlink:href="#DejaVuSans-116"/>
      <use x="324.072266" xlink:href="#DejaVuSans-117"/>
      <use x="387.451172" xlink:href="#DejaVuSans-100"/>
      <use x="450.927734" xlink:href="#DejaVuSans-101"/>
     </g>
    </g>
   </g>
   <g id="line2d_23">
    <path clip-path="url(#pb69f766120)" d="M 259.77124 123.32895 
L 260.213995 110.755886 
L 260.538682 106.713932 
L 260.715784 106.191436 
L 260.730542 106.196584 
L 260.819093 106.375445 
L 260.981437 107.323247 
L 261.24709 110.405815 
L 261.645569 117.975851 
L 262.206392 133.342573 
L 262.959076 160.728557 
L 264.774371 230.215847 
L 265.172851 236.7066 
L 265.438504 238.33112 
L 265.541813 238.412591 
L 265.57133 238.382057 
L 265.704157 237.960096 
L 265.925534 236.283773 
L 266.250221 231.864972 
L 266.707735 222.303828 
L 267.34235 203.884661 
L 268.345929 167.091438 
L 269.231439 137.532792 
L 269.703711 128.156868 
L 270.043156 125.083731 
L 270.235017 124.686178 
L 270.338326 124.851772 
L 270.515428 125.719992 
L 270.79584 128.491467 
L 271.194319 135.020155 
L 271.740384 148.055688 
L 272.522584 172.778195 
L 273.954159 218.674012 
L 274.411672 226.602567 
L 274.736359 229.108227 
L 274.898703 229.396893 
L 274.92822 229.382731 
L 275.046288 229.127104 
L 275.238148 228.058276 
L 275.533318 224.951624 
L 275.946556 217.979724 
L 276.522138 204.071649 
L 277.378131 177.209154 
L 278.529294 142.035314 
L 279.016325 133.267876 
L 279.35577 130.395203 
L 279.562389 129.963986 
L 279.665699 130.108223 
L 279.842801 130.888632 
L 280.108454 133.244985 
L 280.492175 138.902088 
L 281.023481 150.438068 
L 281.776164 172.208292 
L 283.266773 216.226219 
L 283.724286 223.488649 
L 284.048973 225.785844 
L 284.211317 226.04277 
L 284.226075 226.03744 
L 284.344143 225.826767 
L 284.536004 224.867165 
L 284.831174 221.997363 
L 285.244412 215.456274 
L 285.805235 202.675891 
L 286.646469 177.753866 
L 287.827149 143.618764 
L 288.31418 135.335173 
L 288.653625 132.607693 
L 288.860244 132.195984 
L 288.963554 132.33326 
L 289.140656 133.079387 
L 289.406309 135.340204 
L 289.79003 140.788452 
L 290.321336 151.932666 
L 291.07402 172.963033 
L 292.54987 214.89965 
L 293.022142 222.115794 
L 293.346829 224.285647 
L 293.509172 224.511725 
L 293.523931 224.504575 
L 293.641999 224.284843 
L 293.833859 223.32964 
L 294.129029 220.50547 
L 294.542267 214.089766 
L 295.10309 201.570031 
L 295.959083 176.771933 
L 297.110246 144.466475 
L 297.597277 136.371124 
L 297.936722 133.683066 
L 298.143341 133.263227 
L 298.246651 133.388723 
L 298.423753 134.104402 
L 298.689406 136.299423 
L 299.073127 141.620576 
L 299.604433 152.543166 
L 300.357116 173.18248 
L 301.832967 214.302113 
L 302.305239 221.390063 
L 302.629926 223.529896 
L 302.792269 223.756578 
L 302.807028 223.749941 
L 302.925096 223.536846 
L 303.116956 222.601122 
L 303.412126 219.824235 
L 303.825364 213.501392 
L 304.386187 201.145611 
L 305.24218 176.672738 
L 306.393343 144.83807 
L 306.880374 136.863165 
L 307.219819 134.214774 
L 307.426438 133.802678 
L 307.529748 133.92796 
L 307.70685 134.63769 
L 307.972503 136.812493 
L 308.356224 142.085623 
L 308.88753 152.913554 
L 309.640213 173.369044 
L 311.101305 213.756645 
L 311.573577 220.894577 
L 311.898264 223.103146 
L 312.075366 223.368534 
L 312.090124 223.361379 
L 312.208192 223.145534 
L 312.400053 222.210244 
L 312.695223 219.444148 
L 313.108461 213.152805 
L 313.669284 200.86434 
L 314.525277 176.546343 
L 315.661682 145.287565 
L 316.163471 137.089798 
L 316.502916 134.480054 
L 316.709535 134.082798 
L 316.812845 134.213225 
L 316.989947 134.928549 
L 317.2556 137.104972 
L 317.639321 142.368556 
L 318.170627 153.164431 
L 318.938069 173.977332 
L 320.369643 213.382356 
L 320.841915 220.587951 
L 321.166602 222.863076 
L 321.358463 223.164851 
L 321.476531 222.976631 
L 321.668391 222.086838 
L 321.948803 219.561605 
L 322.347282 213.721953 
L 322.893347 202.119042 
L 323.705064 179.525487 
L 324.959537 145.001845 
L 325.446568 137.181472 
L 325.786013 134.609622 
L 325.992632 134.230678 
L 326.095942 134.368911 
L 326.273044 135.095609 
L 326.538697 137.284669 
L 326.922418 142.558266 
L 327.453724 153.354117 
L 328.221166 174.138167 
L 329.65274 213.387482 
L 330.125012 220.53251 
L 330.449699 222.772189 
L 330.626801 223.061207 
L 330.64156 223.05619 
L 330.759628 222.858255 
L 330.951488 221.954631 
L 331.246658 219.241618 
L 331.659896 213.029665 
L 332.220719 200.853291 
L 333.076712 176.704214 
L 334.227875 145.269151 
L 334.714906 137.368428 
L 335.054351 134.728379 
L 335.26097 134.306413 
L 335.36428 134.423194 
L 335.526623 135.033004 
L 335.792276 137.098516 
L 336.161239 141.971603 
L 336.677787 152.137265 
L 337.415712 171.68782 
L 338.980113 214.286311 
L 339.437626 220.820213 
L 339.747555 222.779544 
L 339.909898 223.003499 
L 339.924657 222.997077 
L 340.042725 222.788263 
L 340.234585 221.868379 
L 340.529755 219.133786 
L 340.942993 212.898266 
L 341.503816 200.701607 
L 342.359809 176.552139 
L 343.496214 145.505193 
L 343.998003 137.35183 
L 344.337448 134.749155 
L 344.544067 134.348316 
L 344.647377 134.475052 
L 344.824479 135.181513 
L 345.090132 137.339643 
L 345.473853 142.568782 
L 346.005159 153.30553 
L 346.772601 174.013998 
L 348.204176 213.222252 
L 348.676448 220.398378 
L 349.001135 222.668167 
L 349.192995 222.971769 
L 349.311063 222.786243 
L 349.502924 221.903022 
L 349.783335 219.391422 
L 350.181815 213.577371 
L 350.727879 202.01843 
L 351.539597 179.506105 
L 352.794069 145.110528 
L 353.2811 137.316141 
L 353.620545 134.750685 
L 353.827164 134.371435 
L 353.930474 134.508488 
L 354.107576 135.231775 
L 354.373229 137.412941 
L 354.75695 142.670581 
L 355.288256 153.437657 
L 356.055698 174.168558 
L 357.487272 213.309815 
L 357.959544 220.435759 
L 358.284231 222.670062 
L 358.461333 222.958547 
L 358.476092 222.953555 
L 358.59416 222.756167 
L 358.78602 221.854651 
L 359.08119 219.147352 
L 359.494429 212.947289 
L 360.055252 200.792677 
L 360.911245 176.687881 
L 362.062408 145.31858 
L 362.549438 137.435482 
L 362.888884 134.801711 
L 363.095503 134.381294 
L 363.198812 134.498277 
L 363.361156 135.10771 
L 363.626809 137.171024 
L 363.995771 142.038434 
L 364.512319 152.192154 
L 365.250244 171.718526 
L 366.814645 214.250769 
L 367.272158 220.771953 
L 367.582087 222.726315 
L 367.74443 222.948787 
L 367.759189 222.942266 
L 367.877257 222.732856 
L 368.069117 221.812712 
L 368.364287 219.079194 
L 368.777525 212.847603 
L 369.338348 200.65996 
L 370.194341 176.532109 
L 371.330746 145.523283 
L 371.832535 137.383302 
L 372.171981 134.786657 
L 372.3786 134.388252 
L 372.481909 134.515876 
L 372.659011 135.223392 
L 372.924664 137.382109 
L 373.308385 142.610332 
L 373.839691 153.342977 
L 374.607133 174.039975 
L 376.038708 213.211852 
L 376.51098 220.377095 
L 376.835667 222.641338 
L 377.027527 222.942471 
L 377.145595 222.755714 
L 377.337456 221.870929 
L 377.617867 219.357928 
L 378.016347 213.543433 
L 378.562411 201.986406 
L 379.374129 179.482441 
L 380.628601 145.112654 
L 381.115632 137.328725 
L 381.455077 134.769183 
L 381.661696 134.392844 
L 381.765006 134.531153 
L 381.942108 135.256296 
L 382.207761 137.439587 
L 382.591482 142.699053 
L 383.122788 153.466542 
L 383.89023 174.193609 
L 385.321805 213.311676 
L 385.794077 220.428289 
L 386.118764 222.657047 
L 386.295866 222.942924 
L 386.310624 222.937728 
L 386.428692 222.738792 
L 386.620553 221.835051 
L 386.915723 219.125004 
L 387.328961 212.922339 
L 387.889784 200.766299 
L 388.745777 176.664564 
L 389.89694 145.311698 
L 390.38397 137.437774 
L 390.723416 134.809895 
L 390.930035 134.392669 
L 391.033344 134.511118 
L 391.210446 135.20341 
L 391.476099 137.340723 
L 391.85982 142.541389 
L 392.376368 152.898086 
L 393.129051 173.040959 
L 394.61966 213.698088 
L 395.091932 220.627963 
L 395.416619 222.720376 
L 395.578963 222.940312 
L 395.593721 222.933569 
L 395.711789 222.722441 
L 395.90365 221.79972 
L 396.19882 219.062764 
L 396.612058 212.827382 
L 397.172881 200.636404 
L 398.043632 176.063339 
L 399.165278 145.511566 
L 399.667067 137.380308 
L 400.006513 134.789516 
L 400.213132 134.394432 
L 400.316441 134.523624 
L 400.493543 135.233669 
L 400.759196 137.39579 
L 401.142917 142.628107 
L 401.674223 153.364887 
L 402.441665 174.064349 
L 403.87324 213.223899 
L 404.345512 220.381055 
L 404.670199 222.63973 
L 404.862059 222.937755 
L 404.980128 222.74918 
L 405.171988 221.861615 
L 405.4524 219.344962 
L 405.850879 213.526116 
L 406.396944 201.964686 
L 407.208661 179.458129 
L 407.341488 175.461755 
L 407.341488 175.461755 
" style="fill:none;stroke:#ff0000;stroke-linecap:square;stroke-width:1.5;"/>
   </g>
   <g id="line2d_24">
    <path clip-path="url(#pb69f766120)" d="M 259.77124 123.32895 
L 261.188056 198.525578 
L 261.822671 216.805126 
L 262.604872 232.958621 
L 263.180453 241.122543 
L 263.460865 242.802856 
L 263.534657 242.86176 
L 263.578933 242.807758 
L 263.697001 242.310285 
L 263.888861 240.302879 
L 264.169273 234.481452 
L 264.567752 220.72696 
L 266.397806 149.792423 
L 267.120973 133.860208 
L 267.711313 124.98096 
L 268.050759 122.440555 
L 268.198344 122.20303 
L 268.227861 122.230081 
L 268.345929 122.607471 
L 268.537789 124.207576 
L 268.803442 128.583883 
L 269.187163 139.150156 
L 269.925088 167.372946 
L 270.810598 197.882963 
L 271.533765 215.392966 
L 272.183139 226.346808 
L 272.596377 230.307233 
L 272.832513 230.995346 
L 272.921064 230.88557 
L 273.068649 230.204145 
L 273.290026 227.925017 
L 273.599955 222.111347 
L 274.057468 208.695459 
L 275.872764 150.533527 
L 276.581172 136.780574 
L 277.082961 130.595367 
L 277.392889 128.927215 
L 277.496199 128.84796 
L 277.525716 128.874349 
L 277.643784 129.209937 
L 277.835644 130.586949 
L 278.116056 134.555967 
L 278.499777 143.586674 
L 279.193427 166.443056 
L 280.211763 198.233878 
L 280.949688 214.52874 
L 281.554787 223.540491 
L 281.938508 226.504307 
L 282.130368 226.876587 
L 282.145127 226.869573 
L 282.248436 226.667961 
L 282.425538 225.668649 
L 282.676433 222.753106 
L 283.030637 215.661987 
L 283.576701 199.519226 
L 284.993517 156.293935 
L 285.716684 141.493597 
L 286.277507 133.980367 
L 286.616952 131.772278 
L 286.779296 131.545672 
L 286.794054 131.555225 
L 286.912122 131.823751 
L 287.103983 133.027328 
L 287.369636 136.348058 
L 287.753357 144.432185 
L 288.373214 163.159851 
L 289.568652 198.962114 
L 290.306578 214.364428 
L 290.882159 222.300309 
L 291.236363 224.750192 
L 291.413465 225.046025 
L 291.428224 225.038824 
L 291.531533 224.842769 
L 291.708635 223.884527 
L 291.95953 221.105702 
L 292.313734 214.367697 
L 292.859798 198.994103 
L 294.350407 155.345441 
L 295.058815 141.555724 
L 295.590121 134.895159 
L 295.914808 132.983998 
L 296.062393 132.816225 
L 296.077151 132.826384 
L 296.195219 133.093751 
L 296.38708 134.269433 
L 296.652733 137.490092 
L 297.036454 145.304009 
L 297.656311 163.432418 
L 298.896025 199.545196 
L 299.63395 214.426918 
L 300.180014 221.632826 
L 300.534218 223.923045 
L 300.696562 224.15109 
L 300.71132 224.142892 
L 300.829388 223.893565 
L 301.021249 222.756576 
L 301.286902 219.60861 
L 301.655864 212.286396 
L 302.246205 195.418675 
L 303.57447 157.042398 
L 304.297636 142.734972 
L 304.843701 135.729253 
L 305.183146 133.647598 
L 305.330731 133.447843 
L 305.360248 133.465539 
L 305.478316 133.739513 
L 305.670177 134.913786 
L 305.950588 138.333402 
L 306.334309 146.167461 
L 306.968925 164.585917 
L 308.179122 199.356743 
L 308.917047 214.118987 
L 309.463111 221.242069 
L 309.817315 223.483043 
L 309.979659 223.693555 
L 309.994417 223.684009 
L 310.112485 223.425713 
L 310.304346 222.282344 
L 310.569999 219.146383 
L 310.95372 211.532183 
L 311.573577 193.811784 
L 312.842808 157.492285 
L 313.565975 143.173397 
L 314.112039 136.134055 
L 314.451485 134.004898 
L 314.613828 133.777548 
L 314.628587 133.785378 
L 314.746655 134.028807 
L 314.938515 135.143739 
L 315.204168 138.232684 
L 315.573131 145.420403 
L 316.163471 162.010664 
L 317.506494 200.348351 
L 318.229661 214.472148 
L 318.760967 221.19577 
L 319.100412 223.26088 
L 319.247997 223.459865 
L 319.277514 223.442637 
L 319.395582 223.172894 
L 319.587443 222.01451 
L 319.867854 218.640482 
L 320.251575 210.909313 
L 320.886191 192.70484 
L 322.111146 157.833324 
L 322.834313 143.47666 
L 323.380377 136.388547 
L 323.734581 134.161222 
L 323.896925 133.951656 
L 323.911683 133.961064 
L 324.029751 134.21674 
L 324.221612 135.349405 
L 324.487265 138.455781 
L 324.870986 145.998216 
L 325.476085 163.10991 
L 326.774833 200.041208 
L 327.497999 214.211553 
L 328.044064 221.121253 
L 328.383509 223.150563 
L 328.531094 223.333349 
L 328.560611 223.31289 
L 328.678679 223.030394 
L 328.87054 221.852527 
L 329.150951 218.455532 
L 329.534672 210.710346 
L 330.169288 192.533301 
L 331.394243 157.774075 
L 332.11741 143.470845 
L 332.663474 136.428267 
L 333.00292 134.281729 
L 333.165263 134.039045 
L 333.180022 134.045212 
L 333.283331 134.227313 
L 333.460433 135.131263 
L 333.711328 137.759373 
L 334.065532 144.138198 
L 334.611596 158.760959 
L 336.175998 202.769338 
L 336.884406 215.819102 
L 337.386195 221.595322 
L 337.696123 223.168753 
L 337.814191 223.265031 
L 337.843708 223.241243 
L 337.976535 222.885112 
L 338.183154 221.479178 
L 338.478324 217.596673 
L 338.891562 208.697826 
L 339.629487 186.842927 
L 340.662582 158.030059 
L 341.385748 143.667333 
L 341.931813 136.563502 
L 342.286017 134.313725 
L 342.44836 134.088866 
L 342.463119 134.096706 
L 342.581187 134.338742 
L 342.773047 135.445089 
L 343.0387 138.507463 
L 343.407663 145.63037 
L 343.998003 162.080208 
L 345.355785 200.54896 
L 346.078951 214.520997 
L 346.610257 221.114525 
L 346.949703 223.076955 
L 347.082529 223.233394 
L 347.112046 223.216012 
L 347.230114 222.946833 
L 347.421975 221.793943 
L 347.702387 218.439584 
L 348.086108 210.757313 
L 348.720723 192.661553 
L 349.945679 157.926262 
L 350.668845 143.605183 
L 351.21491 136.539957 
L 351.554355 134.369742 
L 351.731457 134.116694 
L 351.746216 134.126228 
L 351.864284 134.382162 
L 352.056144 135.51199 
L 352.321797 138.606741 
L 352.705518 146.116396 
L 353.310617 163.15444 
L 354.609365 199.977579 
L 355.332531 214.120655 
L 355.878596 221.012221 
L 356.218041 223.032649 
L 356.365626 223.213048 
L 356.395143 223.192264 
L 356.513211 222.909057 
L 356.705072 221.732368 
L 356.985483 218.343205 
L 357.369204 210.620784 
L 358.00382 192.498794 
L 359.228776 157.81465 
L 359.951942 143.533052 
L 360.498007 136.505287 
L 360.837452 134.3667 
L 360.999796 134.126763 
L 361.014554 134.13313 
L 361.117864 134.316352 
L 361.294966 135.220913 
L 361.54586 137.846449 
L 361.900064 144.21398 
L 362.446129 158.805681 
L 364.01053 202.741064 
L 364.718938 215.774419 
L 365.220727 221.539317 
L 365.530655 223.10649 
L 365.648723 223.200847 
L 365.67824 223.176638 
L 365.811067 222.818958 
L 366.017686 221.411995 
L 366.312856 217.531668 
L 366.726094 208.643647 
L 367.464019 186.820967 
L 368.511872 157.698993 
L 369.235039 143.455741 
L 369.781103 136.464893 
L 370.120549 134.357821 
L 370.282892 134.13572 
L 370.297651 134.143791 
L 370.415719 134.387513 
L 370.60758 135.495847 
L 370.873233 138.558928 
L 371.256954 146.025194 
L 371.862052 163.021743 
L 373.175559 200.206083 
L 373.898725 214.272112 
L 374.430031 220.958462 
L 374.769477 223.005043 
L 374.917062 223.1992 
L 374.946579 223.181337 
L 375.064647 222.910343 
L 375.256507 221.755002 
L 375.536919 218.398667 
L 375.92064 210.717745 
L 376.555255 192.633506 
L 377.780211 157.924087 
L 378.503377 143.613322 
L 379.049442 136.556345 
L 379.388887 134.39189 
L 379.551231 134.136955 
L 379.580748 134.151659 
L 379.698816 134.409525 
L 379.890676 135.542196 
L 380.171088 138.864349 
L 380.554809 146.50352 
L 381.174666 164.096008 
L 382.429139 199.642598 
L 383.152305 213.882027 
L 383.69837 220.8695 
L 384.037815 222.973939 
L 384.200159 223.194642 
L 384.214917 223.186441 
L 384.332985 222.941666 
L 384.524846 221.831613 
L 384.790499 218.766306 
L 385.17422 211.297687 
L 385.779318 194.300641 
L 387.092825 157.12269 
L 387.815991 143.06024 
L 388.347297 136.377062 
L 388.686743 134.333081 
L 388.834328 134.140198 
L 388.863845 134.158323 
L 388.981913 134.43039 
L 389.173773 135.587505 
L 389.454185 138.94632 
L 389.837906 146.629846 
L 390.472521 164.71503 
L 391.697477 199.419162 
L 392.420643 213.726532 
L 392.966708 220.7804 
L 393.306153 222.942318 
L 393.468497 223.195859 
L 393.498014 223.180891 
L 393.616082 222.921942 
L 393.807943 221.787456 
L 394.088354 218.462707 
L 394.472075 210.820671 
L 395.091932 193.226688 
L 396.346405 157.684876 
L 397.069571 143.448711 
L 397.615636 136.464288 
L 397.955081 134.362377 
L 398.117425 134.143075 
L 398.132183 134.151409 
L 398.250251 134.397274 
L 398.442112 135.509171 
L 398.707765 138.577022 
L 399.091486 146.048738 
L 399.696584 163.047769 
L 401.010091 200.221259 
L 401.733257 214.280531 
L 402.264563 220.960767 
L 402.604009 223.00222 
L 402.751594 223.193827 
L 402.781111 223.175434 
L 402.899179 222.902268 
L 403.091039 221.743285 
L 403.371451 218.381737 
L 403.755172 210.695051 
L 404.389787 192.607786 
L 405.614743 157.907645 
L 406.33791 143.603371 
L 406.883974 136.55244 
L 407.22342 134.393002 
L 407.341488 134.154078 
L 407.341488 134.154078 
" style="fill:none;stroke:#0000ff;stroke-linecap:square;stroke-width:1.5;"/>
   </g>
   <g id="patch_8">
    <path d="M 252.392727 249.69822 
L 252.392727 99.35778 
" style="fill:none;stroke:#000000;stroke-linecap:square;stroke-linejoin:miter;stroke-width:0.8;"/>
   </g>
   <g id="patch_9">
    <path d="M 414.72 249.69822 
L 414.72 99.35778 
" style="fill:none;stroke:#000000;stroke-linecap:square;stroke-linejoin:miter;stroke-width:0.8;"/>
   </g>
   <g id="patch_10">
    <path d="M 252.392727 249.69822 
L 414.72 249.69822 
" style="fill:none;stroke:#000000;stroke-linecap:square;stroke-linejoin:miter;stroke-width:0.8;"/>
   </g>
   <g id="patch_11">
    <path d="M 252.392727 99.35778 
L 414.72 99.35778 
" style="fill:none;stroke:#000000;stroke-linecap:square;stroke-linejoin:miter;stroke-width:0.8;"/>
   </g>
   <g id="text_27">
    <!-- Amplitude x(t) and v(t) -->
    <g transform="translate(264.629489 93.35778)scale(0.12 -0.12)">
     <defs>
      <path d="M 54.890625 33.015625 
L 54.890625 0 
L 45.90625 0 
L 45.90625 32.71875 
Q 45.90625 40.484375 42.875 44.328125 
Q 39.84375 48.1875 33.796875 48.1875 
Q 26.515625 48.1875 22.3125 43.546875 
Q 18.109375 38.921875 18.109375 30.90625 
L 18.109375 0 
L 9.078125 0 
L 9.078125 54.6875 
L 18.109375 54.6875 
L 18.109375 46.1875 
Q 21.34375 51.125 25.703125 53.5625 
Q 30.078125 56 35.796875 56 
Q 45.21875 56 50.046875 50.171875 
Q 54.890625 44.34375 54.890625 33.015625 
z
" id="DejaVuSans-110"/>
     </defs>
     <use xlink:href="#DejaVuSans-65"/>
     <use x="68.408203" xlink:href="#DejaVuSans-109"/>
     <use x="165.820312" xlink:href="#DejaVuSans-112"/>
     <use x="229.296875" xlink:href="#DejaVuSans-108"/>
     <use x="257.080078" xlink:href="#DejaVuSans-105"/>
     <use x="284.863281" xlink:href="#DejaVuSans-116"/>
     <use x="324.072266" xlink:href="#DejaVuSans-117"/>
     <use x="387.451172" xlink:href="#DejaVuSans-100"/>
     <use x="450.927734" xlink:href="#DejaVuSans-101"/>
     <use x="512.451172" xlink:href="#DejaVuSans-32"/>
     <use x="544.238281" xlink:href="#DejaVuSans-120"/>
     <use x="603.417969" xlink:href="#DejaVuSans-40"/>
     <use x="642.431641" xlink:href="#DejaVuSans-116"/>
     <use x="681.640625" xlink:href="#DejaVuSans-41"/>
     <use x="720.654297" xlink:href="#DejaVuSans-32"/>
     <use x="752.441406" xlink:href="#DejaVuSans-97"/>
     <use x="813.720703" xlink:href="#DejaVuSans-110"/>
     <use x="877.099609" xlink:href="#DejaVuSans-100"/>
     <use x="940.576172" xlink:href="#DejaVuSans-32"/>
     <use x="972.363281" xlink:href="#DejaVuSans-118"/>
     <use x="1031.542969" xlink:href="#DejaVuSans-40"/>
     <use x="1070.556641" xlink:href="#DejaVuSans-116"/>
     <use x="1109.765625" xlink:href="#DejaVuSans-41"/>
    </g>
   </g>
  </g>
 </g>
 <defs>
  <clipPath id="p347a154a33">
   <rect height="148.132608" width="162.327273" x="57.6" y="100.461696"/>
  </clipPath>
  <clipPath id="pb69f766120">
   <rect height="150.340441" width="162.327273" x="252.392727" y="99.35778"/>
  </clipPath>
 </defs>
</svg>
